<?xml version="1.0" standalone="no"?>
  <!DOCTYPE svg PUBLIC "-//W3C//DTD SVG 1.1//EN" "http://www.w3.org/Graphics/SVG/1.1/DTD/svg11.dtd" >
  <svg>
  <metadata>
  Created by font-carrier
  </metadata>
  <defs>
  <font id="Benzin-Regular" horiz-adv-x="1965" vert-adv-y="1965" >
    <font-face
      
      font-family="Benzin-Regular"
      
      font-weight="400"
      
      font-stretch="normal"
      
      units-per-em="1000"
      
      ascent="781"
      
      descent="-219"
      
    />
      <missing-glyph />

      

      
      <glyph glyph-name="uni21" unicode="&#x21;" d="M100 185L40 740L215 740L155 185L100 185M53 140L53 0L202 0L202 140L53 140Z"  horiz-adv-x="255" vert-adv-y="1000"  />

      
      <glyph glyph-name="uni22" unicode="&#x22;" d="M35 740L85 410L144 410L194 740L35 740M242 740L292 410L351 410L401 740L242 740Z"  horiz-adv-x="436" vert-adv-y="1000"  />

      
      <glyph glyph-name="uni23" unicode="&#x23;" d="M682 504L659 423L543 423L500 270L618 270L594 190L477 190L424 0L325 0L378 190L231 190L178 0L79 0L132 190L14 190L37 270L155 270L198 423L79 423L102 504L221 504L287 740L386 740L320 504L467 504L533 740L632 740L566 504L682 504M254 270L401 270L444 423L297 423L254 270Z"  horiz-adv-x="718" vert-adv-y="1000"  />

      
      <glyph glyph-name="uni24" unicode="&#x24;" d="M515 425Q634 424 716 411Q798 398 851 356Q904 314 904 233Q904 92 787 37Q670-18 515-22L515-136L396-136L396-19Q253-6 146.50 53.50Q40 113 40 244L177 248Q177 117 396 97L396 307Q281 309 205 325Q129 341 84.50 385Q40 429 40 511Q40 642 145 696Q250 750 396 760L396 875L515 875L515 761Q662 754 783 696.50Q904 639 904 495L767 495Q767 569 686 602Q605 635 515 642L515 425M172 514Q172 433 396 426L396 640Q305 631 238.50 602Q172 573 172 514M772 230Q772 277 698.50 291Q625 305 515 306L515 94Q623 97 697 128Q771 159 772 229L772 230Z"  horiz-adv-x="944" vert-adv-y="1000"  />

      
      <glyph glyph-name="uni25" unicode="&#x25;" d="M195 0L35 0L685 700L845 700L195 0M244 376Q201 376 164 397.50Q127 419 105.50 456Q84 493 84 536Q84 579 105.50 616Q127 653 164 674.50Q201 696 244 696Q287 696 324 674.50Q361 653 382.50 616Q404 579 404 536Q404 493 382.50 456Q361 419 324 397.50Q287 376 244 376M244 469Q272 469 291.50 488.50Q311 508 311 536Q311 564 291.50 583.50Q272 603 244 603Q216 603 196.50 583.50Q177 564 177 536Q177 508 196.50 488.50Q216 469 244 469M636 6Q593 6 556 27.50Q519 49 497.50 86Q476 123 476 166Q476 209 497.50 246Q519 283 556 304.50Q593 326 636 326Q679 326 716 304.50Q753 283 774.50 246Q796 209 796 166Q796 123 774.50 86Q753 49 716 27.50Q679 6 636 6M636 100Q663 100 682.50 119.50Q702 139 702 166Q702 193 682 212.50Q662 232 636 232Q609 232 589.50 212.50Q570 193 570 166Q570 139 589.50 119.50Q609 100 636 100Z"  horiz-adv-x="860" vert-adv-y="1000"  />

      
      <glyph glyph-name="uni26" unicode="&#x26;" d="M773 351Q773 186 663 90L766-1L607-1L570 32Q478-10 371-10Q283-10 198.50 14Q114 38 59.50 85.50Q5 133 5 202Q5 265 53.50 304.50Q102 344 188 374Q144 416 115.50 456Q87 496 87 534Q87 613 129 661Q171 709 234.50 729Q298 749 367 749Q450 749 508 725Q566 701 594.50 661Q623 621 623 573Q623 505 586.50 463.50Q550 422 497.50 401Q445 380 361 359Q368 352 368 352L580 164Q657 232 657 351L773 351M210 537Q210 486 301 408Q367 428 408 445Q449 462 475.50 486.50Q502 511 502 545Q502 596 462 628.50Q422 661 360 661Q293 661 251.50 628Q210 595 210 537M371 96Q427 96 480 112L243 323Q194 304 167.50 275.50Q141 247 141 202Q141 168 176 144Q211 120 264 108Q317 96 371 96Z"  horiz-adv-x="758" vert-adv-y="1000"  />

      
      <glyph glyph-name="uni27" unicode="&#x27;" d="M35 740L85 410L144 410L194 740L35 740Z"  horiz-adv-x="229" vert-adv-y="1000"  />

      
      <glyph glyph-name="uni28" unicode="&#x28;" d="M223-130Q118 18 66.50 145.50Q15 273 15 395Q15 515 66 640.50Q117 766 223 910L288 910Q225 770 195 646.50Q165 523 165 402Q165 280 195.50 151Q226 22 288-130L223-130Z"  horiz-adv-x="258" vert-adv-y="1000"  />

      
      <glyph glyph-name="uni29" unicode="&#x29;" d="M-35-130Q27 22 57.50 151Q88 280 88 402Q88 523 58 646.50Q28 770-35 910L30 910Q136 766 187 640.50Q238 515 238 395Q238 273 186.50 145.50Q135 18 30-130L-35-130Z"  horiz-adv-x="253" vert-adv-y="1000"  />

      
      <glyph glyph-name="uni2a" unicode="&#x2a;" d="M262 565L387 508L351 446L238 531L254 390L184 390L199 529L85 446L53 507L184 564L50 622L85 684L198 602L184 740L254 740L239 596L351 684L385 627L262 565Z"  horiz-adv-x="437" vert-adv-y="1000"  />

      
      <glyph glyph-name="uni2b" unicode="&#x2b;" d="M285 370L462 370L462 277L285 277L285 100L192 100L192 277L15 277L15 370L192 370L192 547L285 547L285 370Z"  horiz-adv-x="477" vert-adv-y="1000"  />

      
      <glyph glyph-name="uni2c" unicode="&#x2c;" d="M41 0L41 140L190 140L190 0L115-90L40-90L115 0L41 0Z"  horiz-adv-x="230" vert-adv-y="1000"  />

      
      <glyph glyph-name="uni2d" unicode="&#x2d;" d="M33 240L33 338L382 338L382 240L33 240Z"  horiz-adv-x="415" vert-adv-y="1000"  />

      
      <glyph glyph-name="uni2e" unicode="&#x2e;" d="M40 140L40 0L189 0L189 140L40 140Z"  horiz-adv-x="229" vert-adv-y="1000"  />

      
      <glyph glyph-name="uni2f" unicode="&#x2f;" d="M-40-117L364 840L499 840L95-117L-40-117Z"  horiz-adv-x="469" vert-adv-y="1000"  />

      
      <glyph glyph-name="uni30" unicode="&#x30;" d="M501 738Q775 739 869.50 626Q964 513 964 364Q964 218 868.50 97.50Q773-23 501-23Q310-23 206.50 41.50Q103 106 70 193Q37 280 40 364Q40 509 133.50 623.50Q227 738 501 738M502 72Q622 72 696.50 114Q771 156 803 222.50Q835 289 832 367Q835 441 803 504.50Q771 568 696.50 607.50Q622 647 502 647Q383 647 308.50 607.50Q234 568 202.50 504.50Q171 441 174 367Q171 289 202.50 222.50Q234 156 308.50 114Q383 72 502 72Z"  horiz-adv-x="1004" vert-adv-y="1000"  />

      
      <glyph glyph-name="uni31" unicode="&#x31;" d="M342 740L342 0L212 0L212 523L45 523L45 614Q135 614 178.50 637Q222 660 231.50 686.50Q241 713 241 740L342 740Z"  horiz-adv-x="402" vert-adv-y="1000"  />

      
      <glyph glyph-name="uni32" unicode="&#x32;" d="M947 113L947 0L45 0L45 50Q45 182 85.50 250Q126 318 192 344Q258 370 377 389Q406 394 447.50 399Q489 404 512 407Q611 418 667 428.50Q723 439 761 460.50Q799 482 799 519Q799 591 707 623.50Q615 656 482 655Q354 656 264.50 617Q175 578 175 494L45 495Q45 594 117 654Q189 714 288.50 738Q388 762 480 762Q651 762 790 713Q929 664 929 520Q929 441 857 395Q785 349 693.50 330.50Q602 312 481 299Q422 294 399 289Q270 278 222.50 225Q175 172 175 113L947 113Z"  horiz-adv-x="977" vert-adv-y="1000"  />

      
      <glyph glyph-name="uni33" unicode="&#x33;" d="M964 245L964 245Q963 106 838 42Q713-22 512-22Q366-22 260.50 17Q155 56 100 126Q45 196 45 289L174 289Q174 186 272.50 137.50Q371 89 512 89Q644 88 736.50 126Q829 164 830 246Q830 278 815 294.50Q800 311 744 319.50Q688 328 566 328L381 328L381 442L568 442L617 442Q679 442 720 447.50Q761 453 787.50 473Q814 493 814 533Q814 591 726 620Q638 649 512 651Q371 653 272.50 620.50Q174 588 174 515L45 515Q45 659 190.50 710.50Q336 762 512 762Q619 762 711.50 748.50Q804 735 874 686Q944 637 944 541Q944 434 866 391Q963 350 964 247L964 246L964 245Z"  horiz-adv-x="1014" vert-adv-y="1000"  />

      
      <glyph glyph-name="uni34" unicode="&#x34;" d="M701 222L806 222L806 112L701 112L701 0L571 0L571 112L45 112L45 222L571 740L701 740L701 222M571 600L211 222L571 222L571 600Z"  horiz-adv-x="851" vert-adv-y="1000"  />

      
      <glyph glyph-name="uni35" unicode="&#x35;" d="M845 259L715 259L845 259M845 258L845 258Q841 99 722 39Q603-21 449-21Q367-21 277.50 4Q188 29 124 89Q60 149 60 246L190 247Q190 169 262.50 129Q335 89 439 84Q554 81 634.50 123Q715 165 715 258Q714 341 651 387Q588 433 446 433Q390 433 329.50 418Q269 403 228 373.50Q187 344 187 303L187 297L63 293L63 740L810 740L810 642L187 642L187 447Q234 491 312.50 507.50Q391 524 496 524Q598 524 677 492.50Q756 461 800.50 401Q845 341 845 259L845 258Z"  horiz-adv-x="885" vert-adv-y="1000"  />

      
      <glyph glyph-name="uni36" unicode="&#x36;" d="M940 245L940 245Q940 155 883 95Q826 35 730 6.50Q634-22 514-22Q300-22 183.50 52.50Q67 127 46 289Q45 305 45 335Q45 575 182.50 665.50Q320 756 514 756Q697 756 809 697.50Q921 639 921 524L790 528Q790 596 710.50 627.50Q631 659 516 658Q433 660 360 636.50Q287 613 238.50 557.50Q190 502 184 412Q241 453 321 472Q401 491 459 494Q517 497 582 497Q693 497 774 465.50Q855 434 897 377.50Q939 321 940 247L940 246L940 245M516 95Q636 96 720 131Q804 166 804 239Q804 312 762.50 347.50Q721 383 654 393.50Q587 404 482 404Q380 404 289.50 378.50Q199 353 198 267Q198 185 258 147.50Q318 110 377.50 103Q437 96 516 95Z"  horiz-adv-x="985" vert-adv-y="1000"  />

      
      <glyph glyph-name="uni37" unicode="&#x37;" d="M714 740L314 0L189 0L532 635L35 635L35 740L714 740Z"  horiz-adv-x="729" vert-adv-y="1000"  />

      
      <glyph glyph-name="uni38" unicode="&#x38;" d="M784 402Q874 386 916.50 343.50Q959 301 959 218Q959 73 834.50 24Q710-25 539-25L498-25Q379-25 284.50-12Q190 1 115 54Q40 107 40 217Q39 306 80.50 348Q122 390 218 404Q148 416 108 453Q68 490 68 560Q68 654 157.50 699Q247 744 322.50 752Q398 760 494 763Q578 763 667.50 754Q757 745 844 700Q931 655 931 561Q931 488 892 450.50Q853 413 784 402M493 672Q370 673 283.50 646Q197 619 197 560Q197 499 284.50 472Q372 445 498 448Q624 445 712.50 472Q801 499 801 560Q801 619 711 646Q621 673 493 672M495 78Q635 76 732 109.50Q829 143 829 218Q829 294 732.50 327.50Q636 361 497 359Q358 361 261.50 327.50Q165 294 165 218Q165 143 261 109.50Q357 76 495 78Z"  horiz-adv-x="999" vert-adv-y="1000"  />

      
      <glyph glyph-name="uni39" unicode="&#x39;" d="M934 445Q935 429 935 399Q935 159 797.50 68.50Q660-22 466-22Q283-22 171 36.50Q59 95 59 210L190 206Q190 138 269.50 106.50Q349 75 464 76Q547 74 620 97.50Q693 121 741.50 176.50Q790 232 796 322Q739 281 659 262Q579 243 521 240Q463 237 398 237Q287 237 206 268.50Q125 300 83 356.50Q41 413 40 487L40 488L40 489Q40 579 97 639Q154 699 250 727.50Q346 756 466 756Q680 756 796.50 681.50Q913 607 934 445M498 330Q600 330 690.50 355.50Q781 381 782 467Q782 549 722 586.50Q662 624 602.50 631Q543 638 464 639Q344 638 260 603Q176 568 176 495Q176 422 217.50 386.50Q259 351 326 340.50Q393 330 498 330Z"  horiz-adv-x="975" vert-adv-y="1000"  />

      
      <glyph glyph-name="uni3a" unicode="&#x3a;" d="M40 505L40 365L189 365L189 505L40 505M40 140L40 0L189 0L189 140L40 140Z"  horiz-adv-x="229" vert-adv-y="1000"  />

      
      <glyph glyph-name="uni3b" unicode="&#x3b;" d="M41 364L41 504L190 504L190 364L41 364M115 0L41 0L41 140L190 140L190 0L115-90L40-90L115 0Z"  horiz-adv-x="230" vert-adv-y="1000"  />

      
      <glyph glyph-name="uni3c" unicode="&#x3c;" d="M15 401L572 558L572 447L125 341L572 235L572 124L15 280L15 401Z"  horiz-adv-x="587" vert-adv-y="1000"  />

      
      <glyph glyph-name="uni3d" unicode="&#x3d;" d="M462 399L462 306L15 306L15 399L462 399M462 260L462 167L15 167L15 260L462 260Z"  horiz-adv-x="477" vert-adv-y="1000"  />

      
      <glyph glyph-name="uni3e" unicode="&#x3e;" d="M15 447L15 558L572 401L572 280L15 124L15 235L462 341L15 447Z"  horiz-adv-x="587" vert-adv-y="1000"  />

      
      <glyph glyph-name="uni3f" unicode="&#x3f;" d="M860 511Q860 384 774.50 342.50Q689 301 597 300Q525 300 489 285.50Q453 271 441.50 246.50Q430 222 430 184L279 184Q279 267 304.50 312Q330 357 374 373.50Q418 390 485 391Q565 391 647.50 416.50Q730 442 730 514Q730 580 644.50 609.50Q559 639 436 637Q321 636 240.50 601Q160 566 160 493L30 495Q30 653 155.50 707.50Q281 762 438 762Q539 762 629 746.50Q719 731 789.50 675.50Q860 620 860 511M280 0L279 140L432 140L433 0L280 0Z"  horiz-adv-x="890" vert-adv-y="1000"  />

      
      <glyph glyph-name="uni40" unicode="&#x40;" d="M698 803Q826 803 919 761.50Q1012 720 1061.50 644.50Q1111 569 1111 469Q1111 406 1092 339Q1053 203 974 141.50Q895 80 805 80Q756 80 714.50 97Q673 114 653 140Q618 114 576.50 100.50Q535 87 493 87Q435 87 390.50 110.50Q346 134 321.50 176Q297 218 297 271Q297 306 307 339Q327 407 378 465Q429 523 498 557Q567 591 637 591Q699 591 735 555L744 590L855 590L766 279Q757 245 757 225Q757 200 767 188.50Q777 177 791 175Q805 173 828 173L834 173Q939 173 985 338Q1003 399 1003 457Q1003 546 957 605Q911 664 833.50 692Q756 720 659 720Q543 720 439 666Q335 612 262 524.50Q189 437 161 339Q145 284 145 226Q145 149 177.50 86Q210 23 276-14Q342-51 439-51Q514-51 565.50-35Q617-19 681 13L709 26L766-42Q704-75 604-109.50Q504-144 426-144Q308-144 220-99.50Q132-55 85 24Q38 103 38 204Q38 272 58 339Q96 472 192 578Q288 684 421 743.50Q554 803 698 803M520 174Q590 174 625 221Q660 268 680 339Q697 398 697 433Q697 469 677 486.50Q657 504 610 504Q559 504 517 478Q475 452 447.50 414Q420 376 410 339Q403 313 403 291Q403 242 431.50 208Q460 174 520 174Z"  horiz-adv-x="1144" vert-adv-y="1000"  />

      
      <glyph glyph-name="uni41" unicode="&#x41;" d="M957 0L817 0L724 172L233 172L140 0L0 0L401 740L556 740L957 0M479 625L299 294L658 294L479 625Z"  horiz-adv-x="957" vert-adv-y="1000"  />

      
      <glyph glyph-name="uni42" unicode="&#x42;" d="M749 388Q833 371 876 329.50Q919 288 919 211L919 207Q919 114 875.50 70Q832 26 759.50 13.50Q687 1 557-1L555-1L507-1L60 0L60 740L603 740Q719 739 788 692Q857 645 857 559L857 555Q857 490 830 449Q803 408 749 388M729 538Q729 584 709.50 605Q690 626 659 631Q628 636 570 636L568 636L189 636L189 440Q235 439 280 439Q325 439 365 438Q459 438 465 437L570 437Q631 437 659.50 441Q688 445 708.50 466.50Q729 488 729 538M189 427L191 427L189 428L189 427M602 107Q671 107 705 112.50Q739 118 759.50 142.50Q780 167 780 222Q780 275 759.50 298.50Q739 322 705 327.50Q671 333 602 333L601 333L189 333L189 109Q440 109 552 107L602 107Z"  horiz-adv-x="959" vert-adv-y="1000"  />

      
      <glyph glyph-name="uni43" unicode="&#x43;" d="M40 369Q40 480 99.50 569Q159 658 262 708.50Q365 759 491 759Q642 759 756.50 684Q871 609 922 471L786 469Q765 525 715 565Q665 605 604.50 625.50Q544 646 492 646Q414 646 339.50 613.50Q265 581 217.50 518Q170 455 170 369Q170 281 214 219Q258 157 331.50 125Q405 93 492 93Q543 93 599 112.50Q655 132 704 171Q753 210 782 266L923 266Q867 126 754.50 53Q642-20 491-20Q366-20 262.50 31Q159 82 99.50 171Q40 260 40 369Z"  horiz-adv-x="963" vert-adv-y="1000"  />

      
      <glyph glyph-name="uni44" unicode="&#x44;" d="M820 369Q820 264 770 180Q720 96 628 48Q536 0 414 0L60 0L60 740L413 740Q535 740 627.50 692Q720 644 770 560Q820 476 820 369M432 122Q507 122 565.50 150.50Q624 179 657.50 234.50Q691 290 691 369Q691 435 657.50 492Q624 549 564.50 583Q505 617 432 617L190 617L190 122L432 122Z"  horiz-adv-x="860" vert-adv-y="1000"  />

      
      <glyph glyph-name="uni45" unicode="&#x45;" d="M716 330L190 330L190 111L800 115L800 0L60 0L60 740L800 740L801 625L190 625L190 445L716 445L716 330Z"  horiz-adv-x="846" vert-adv-y="1000"  />

      
      <glyph glyph-name="uni46" unicode="&#x46;" d="M800 740L800 625L190 625L190 454L716 454L716 344L190 344L190 0L60 0L60 740L800 740Z"  horiz-adv-x="845" vert-adv-y="1000"  />

      
      <glyph glyph-name="uni47" unicode="&#x47;" d="M927 0L845 0L825 108Q764 47 676 13.50Q588-20 488-20Q361-20 259 31Q157 82 98.50 170.50Q40 259 40 369Q40 480 100 568.50Q160 657 262.50 707Q365 757 488 757Q576 757 663 727Q750 697 818 635Q886 573 914 481L776 480Q752 535 704 571.50Q656 608 598.50 625.50Q541 643 489 643Q398 643 325.50 609.50Q253 576 211.50 513.50Q170 451 170 369Q170 282 213.50 219.50Q257 157 330 125Q403 93 489 93Q579 93 659 134Q739 175 780 259L500 259L500 361L923 361L923 289L927 0Z"  horiz-adv-x="967" vert-adv-y="1000"  />

      
      <glyph glyph-name="uni48" unicode="&#x48;" d="M190 459L720 459L720 740L850 740L850 0L720 0L720 339L190 339L190 0L60 0L60 740L190 740L190 459Z"  horiz-adv-x="910" vert-adv-y="1000"  />

      
      <glyph glyph-name="uni49" unicode="&#x49;" d="M190 0L60 0L60 740L190 740L190 0Z"  horiz-adv-x="250" vert-adv-y="1000"  />

      
      <glyph glyph-name="uni4a" unicode="&#x4a;" d="M746 410L746 374L746 295Q746 226 712.50 158.50Q679 91 601.50 45.50Q524 0 400 0Q283 0 201.50 51.50Q120 103 80 173Q40 243 40 298L170 298Q170 250 199.50 207.50Q229 165 281 139Q333 113 399 113Q471 113 520 141Q569 169 592.50 211Q616 253 616 295L616 740L746 740L746 410Z"  horiz-adv-x="806" vert-adv-y="1000"  />

      
      <glyph glyph-name="uni4b" unicode="&#x4b;" d="M303 401L797 0L598 0L190 343L190 0L60 0L60 740L190 740L190 454L579 740L781 740L303 401Z"  horiz-adv-x="797" vert-adv-y="1000"  />

      
      <glyph glyph-name="uni4c" unicode="&#x4c;" d="M190 740L190 113L720 113L720 0L60 0L60 740L190 740Z"  horiz-adv-x="765" vert-adv-y="1000"  />

      
      <glyph glyph-name="uni4d" unicode="&#x4d;" d="M994 740L994 0L864 0L864 527L607 0L466 0L190 536L190 0L60 0L60 740L226 740L535 141L827 740L994 740Z"  horiz-adv-x="1054" vert-adv-y="1000"  />

      
      <glyph glyph-name="uni4e" unicode="&#x4e;" d="M190 0L60 0L60 740L190 0M900 0L770 0L900 0M770 179L770 740L900 740L900 0L770 0L190 562L190 0L60 0L60 740L190 740L770 179Z"  horiz-adv-x="960" vert-adv-y="1000"  />

      
      <glyph glyph-name="uni4f" unicode="&#x4f;" d="M483 756Q610 756 711.50 705.50Q813 655 870.50 566.50Q928 478 928 367Q928 257 870.50 169Q813 81 712 30.50Q611-20 484-20Q361-20 258 30.50Q155 81 95 169.50Q35 258 35 367Q35 477 95 566Q155 655 257.50 705.50Q360 756 483 756M483 93Q564 93 636 125Q708 157 752 219Q796 281 796 367Q796 451 751.50 514Q707 577 634 610Q561 643 480 643Q392 643 320.50 610Q249 577 208 514.50Q167 452 167 367Q167 280 210.50 218Q254 156 326 124.50Q398 93 483 93Z"  horiz-adv-x="963" vert-adv-y="1000"  />

      
      <glyph glyph-name="uni50" unicode="&#x50;" d="M566 740Q659 740 730.50 709Q802 678 841.50 622.50Q881 567 881 494L881 490Q881 367 812 303.50Q743 240 603 240L191 240L191 0L60 0L60 740L566 740M559 351Q619 351 657.50 358Q696 365 723.50 394.50Q751 424 751 487Q751 553 723.50 584.50Q696 616 658 623Q620 630 559 630L516 630Q487 630 416.50 629.50Q346 629 190 629L191 351L558 351L559 351Z"  horiz-adv-x="921" vert-adv-y="1000"  />

      
      <glyph glyph-name="uni51" unicode="&#x51;" d="M951 367Q951 275 909.50 197.50Q868 120 793.50 66.50Q719 13 622-8L756-143L477-143L477-19Q359-14 259 38Q159 90 99.50 176.50Q40 263 40 367Q40 477 104 566Q168 655 274.50 705.50Q381 756 504 756Q631 756 733 705.50Q835 655 893 566.50Q951 478 951 367M507 97Q592 97 663.50 129Q735 161 777.50 222.50Q820 284 820 367Q820 451 777 513.50Q734 576 662.50 609.50Q591 643 507 643Q425 643 347 609.50Q269 576 219.50 513Q170 450 170 367Q170 285 219.50 223.50Q269 162 346.50 129.50Q424 97 507 97Z"  horiz-adv-x="991" vert-adv-y="1000"  />

      
      <glyph glyph-name="uni52" unicode="&#x52;" d="M717 2L512 241L191 241L191 2L60 2L60 742L566 742Q659 742 730.50 711Q802 680 841.50 624.50Q881 569 881 496L881 492Q881 397 825.50 335Q770 273 672 252L887 2L717 2M742 487Q742 553 717.50 583.50Q693 614 656.50 621Q620 628 555 628Q526 628 505 627Q405 623 191 623L191 355L553 355L555 355Q620 355 656.50 361.50Q693 368 717.50 396.50Q742 425 742 487Z"  horiz-adv-x="922" vert-adv-y="1000"  />

      
      <glyph glyph-name="uni53" unicode="&#x53;" d="M484 425Q613 425 700.50 413.50Q788 402 846 360Q904 318 904 233Q904 82 773.50 29.50Q643-23 479-23Q390-23 292-3.50Q194 16 117 75.50Q40 135 40 244L177 248Q177 178 232.50 144Q288 110 354 102Q420 94 494 94Q608 94 689.50 125Q771 156 772 229L772 230Q772 279 692 292.50Q612 306 496 306L470 306Q324 307 236.50 319Q149 331 94.50 375Q40 419 40 511Q40 666 177.50 714Q315 762 479 762Q564 762 659 742.50Q754 723 829 663.50Q904 604 904 495L767 495Q767 566 684.50 602.50Q602 639 483 644Q353 644 262.50 612.50Q172 581 172 514Q172 458 256 441.50Q340 425 457 425L458 425L475 425L483 425L484 425Z"  horiz-adv-x="944" vert-adv-y="1000"  />

      
      <glyph glyph-name="uni54" unicode="&#x54;" d="M45 628L45 740L866 740L45 628M866 740L866 625L523 625L523 0L393 0L393 625L45 625L45 740L866 740Z"  horiz-adv-x="911" vert-adv-y="1000"  />

      
      <glyph glyph-name="uni55" unicode="&#x55;" d="M776 740L909 740L909 344Q909 235 855.50 152.50Q802 70 708 24.50Q614-21 494-21Q378-21 278 25Q178 71 117 154Q56 237 55 344L55 740L188 740L188 334Q188 244 241.50 190Q295 136 366 114Q437 92 495 92Q551 92 615.50 113.50Q680 135 728 189.50Q776 244 776 334L776 740Z"  horiz-adv-x="964" vert-adv-y="1000"  />

      
      <glyph glyph-name="uni56" unicode="&#x56;" d="M401 0L762 740L401 0L401 0M473 147L762 740L907 740L546 0L401 0L20 740L175 740L473 147Z"  horiz-adv-x="927" vert-adv-y="1000"  />

      
      <glyph glyph-name="uni57" unicode="&#x57;" d="M1004 174L1280 740L1425 740L1064 0L919 0L727 533L546 0L401 0L20 740L175 740L460 173L652 740L807 740L1004 174Z"  horiz-adv-x="1445" vert-adv-y="1000"  />

      
      <glyph glyph-name="uni58" unicode="&#x58;" d="M697 740L860 740L561 367L860 0L697 0L443 310L189 0L25 0L324 367L25 740L189 740L443 428L697 740Z"  horiz-adv-x="885" vert-adv-y="1000"  />

      
      <glyph glyph-name="uni59" unicode="&#x59;" d="M719 740L884 740L525 312L525 0L380 0L380 310L20 740L185 740L450 418L719 740Z"  horiz-adv-x="904" vert-adv-y="1000"  />

      
      <glyph glyph-name="uni5a" unicode="&#x5a;" d="M35 741L826 740L826 621L205 119L814 117L814-1L20 0L20 119L26 119L645 621L35 623L35 741Z"  horiz-adv-x="846" vert-adv-y="1000"  />

      
      <glyph glyph-name="uni5b" unicode="&#x5b;" d="M247 910L247 800L155 800L155-7L247-7L247-117L25-117L25 910L247 910Z"  horiz-adv-x="272" vert-adv-y="1000"  />

      
      <glyph glyph-name="uni5c" unicode="&#x5c;" d="M-30 840L105 840L509-117L374-117L-30 840Z"  horiz-adv-x="469" vert-adv-y="1000"  />

      
      <glyph glyph-name="uni5d" unicode="&#x5d;" d="M25 910L247 910L247-117L25-117L25-7L117-7L117 800L25 800L25 910Z"  horiz-adv-x="272" vert-adv-y="1000"  />

      
      <glyph glyph-name="uni5e" unicode="&#x5e;" d="M313 741L469 496L338 496L242 651L146 496L15 496L172 741L313 741Z"  horiz-adv-x="484" vert-adv-y="1000"  />

      
      <glyph glyph-name="uni5f" unicode="&#x5f;" d="M2-138L2-40L702-40L702-138L2-138Z"  horiz-adv-x="704" vert-adv-y="1000"  />

      
      <glyph glyph-name="uni60" unicode="&#x60;" d="M25 910L189 910L259 777L145 777L25 910Z"  horiz-adv-x="284" vert-adv-y="1000"  />

      
      <glyph glyph-name="uni61" unicode="&#x61;" d="M385 569Q511 569 611 521Q711 473 711 352L711 0L600 0L586 105Q572 76 527.50 49.50Q483 23 420.50 7Q358-9 292-9Q215-9 125 23Q35 55 35 163Q35 234 74 271.50Q113 309 159 320.50Q205 332 241 332Q414 332 480.50 334.50Q547 337 567 345.50Q587 354 588 376L588 385Q587 410 558.50 431.50Q530 453 483 466Q436 479 383 479Q293 481 230 454Q167 427 167 367L41 367Q41 444 96 489Q151 534 229 551.50Q307 569 385 569M340 101Q480 101 533.50 158Q587 215 587 287Q538 250 387 250Q304 250 258.50 245Q213 240 191 225.50Q169 211 167 183Q170 145 208.50 123Q247 101 340 101Z"  horiz-adv-x="756" vert-adv-y="1000"  />

      
      <glyph glyph-name="uni62" unicode="&#x62;" d="M699 285L699 285Q699 202 665.50 135Q632 68 571.50 29.50Q511-9 434-9Q247-9 162 66L149 3L45 3L45 738L170 738L170 480Q261 566 434 566Q515 566 575 527Q635 488 666.50 424Q698 360 699 288L699 286L699 285M364 78Q430 78 475.50 109.50Q521 141 544 188.50Q567 236 568 286Q567 329 544 373.50Q521 418 475 448Q429 478 364 478Q307 478 262.50 450.50Q218 423 194 377Q170 331 170 276Q170 226 194.50 180.50Q219 135 263 106.50Q307 78 364 78Z"  horiz-adv-x="729" vert-adv-y="1000"  />

      
      <glyph glyph-name="uni63" unicode="&#x63;" d="M30 272Q30 356 76.50 423.50Q123 491 204.50 529Q286 567 386 567Q530 567 609 507Q688 447 726 339L600 339Q591 375 562 407Q533 439 488 458Q443 477 389 477Q315 477 263 450Q211 423 184.50 376.50Q158 330 158 272Q158 222 183 174Q208 126 260 95.50Q312 65 389 67Q444 67 489 86.50Q534 106 562.50 137.50Q591 169 599 204L725 204Q718 148 668.50 95.50Q619 43 543.50 10Q468-23 386-23Q291-23 209 15.50Q127 54 78.50 122Q30 190 30 272Z"  horiz-adv-x="756" vert-adv-y="1000"  />

      
      <glyph glyph-name="uni64" unicode="&#x64;" d="M559 738L684 738L684 3L580 3L567 66Q482-9 295-9Q218-9 157.50 29.50Q97 68 63.50 135Q30 202 30 285L30 286L30 288Q31 360 62.50 424Q94 488 154 527Q214 566 295 566Q468 566 559 480L559 738M365 78Q422 78 466 106.50Q510 135 534.50 180.50Q559 226 559 276Q559 331 535 377Q511 423 466.50 450.50Q422 478 365 478Q300 478 254 448Q208 418 185 373.50Q162 329 161 286Q162 236 185 188.50Q208 141 253.50 109.50Q299 78 365 78Z"  horiz-adv-x="729" vert-adv-y="1000"  />

      
      <glyph glyph-name="uni65" unicode="&#x65;" d="M723 265L155 265Q158 214 184 169.50Q210 125 261 97Q312 69 385 69Q448 69 496.50 91.50Q545 114 571.50 147.50Q598 181 598 212L723 212Q723 160 683 106Q643 52 566 16Q489-20 383-20Q288-20 207 17.50Q126 55 78 122.50Q30 190 30 276Q30 364 76.50 431.50Q123 499 203.50 535.50Q284 572 383 572Q484 572 560.50 536Q637 500 679.50 434.50Q722 369 723 281L723 265M385 482Q299 482 246 444Q193 406 170 344L590 344Q573 406 523.50 444Q474 482 385 482Z"  horiz-adv-x="753" vert-adv-y="1000"  />

      
      <glyph glyph-name="uni66" unicode="&#x66;" d="M408 499L408 394L284 394L284 0L159 0L159 394L40 394L40 499L159 499L159 553Q159 672 217 715Q275 758 348 758Q373 758 393 754L393 631Q343 631 321.50 623Q300 615 292.50 588.50Q285 562 284 499L408 499Z"  horiz-adv-x="448" vert-adv-y="1000"  />

      
      <glyph glyph-name="uni67" unicode="&#x67;" d="M687 545L687 0Q683-116 596.50-164.50Q510-213 394-213Q288-213 223.50-205.50Q159-198 109-160Q59-122 59-39L189-39Q190-111 345-111L394-110Q451-110 505.50-86.50Q560-63 560 10L560 62Q475-18 300-18Q223-18 162.50 21.50Q102 61 67 125Q32 189 30 260L30 264L30 267Q31 349 65.50 415Q100 481 161 519Q222 557 300 557Q474 562 560 485L560 490L579 545L687 545M367 70Q456 70 508 123Q560 176 560 279L560 282Q560 328 537.50 371.50Q515 415 473.50 442.50Q432 470 379 470Q314 470 266 442.50Q218 415 193 368.50Q168 322 167 268Q169 180 221.50 125Q274 70 367 70Z"  horiz-adv-x="735" vert-adv-y="1000"  />

      
      <glyph glyph-name="uni68" unicode="&#x68;" d="M409 563Q467 563 522 531Q577 499 614 423Q651 347 651 225L651 0L526 0L526 222Q526 325 492 394.50Q458 464 351 464Q241 464 205.50 393.50Q170 323 170 215L170 0L45 0L45 740L170 740L170 474Q249 563 409 563Z"  horiz-adv-x="691" vert-adv-y="1000"  />

      
      <glyph glyph-name="uni69" unicode="&#x69;" d="M170 740L45 740L45 634L170 634L170 740M170 0L45 0L45 605L170 605L170 0Z"  horiz-adv-x="215" vert-adv-y="1000"  />

      
      <glyph glyph-name="uni6a" unicode="&#x6a;" d="M69 634L69 740L194 740L194 634L69 634M69 607L194 607L194-24Q194-131 137.50-170.50Q81-210 9-210Q-19-210-40-206L-40-93Q6-93 29.50-83Q53-73 61-54.50Q69-36 69-6L69 607Z"  horiz-adv-x="254" vert-adv-y="1000"  />

      
      <glyph glyph-name="uni6b" unicode="&#x6b;" d="M303 301L667 0L495 0L160 271L160 0L35 0L35 740L160 740L160 330L448 545L625 545L303 301Z"  horiz-adv-x="672" vert-adv-y="1000"  />

      
      <glyph glyph-name="uni6c" unicode="&#x6c;" d="M170 0L45 0L45 740L170 740L170 0Z"  horiz-adv-x="230" vert-adv-y="1000"  />

      
      <glyph glyph-name="uni6d" unicode="&#x6d;" d="M907 563Q988 563 1039.50 530Q1091 497 1116.50 423Q1142 349 1142 225L1142 0L1018 0L1018 222Q1018 317 977 391Q936 465 835 465Q762 465 723.50 433.50Q685 402 672 351Q659 300 659 225L659 0L533 0L533 222Q533 320 496.50 392.50Q460 465 361 465Q272 465 231.50 429.50Q191 394 181 335Q171 276 171 165L171 0L45 0L45 545L138 545L171 467L171 462Q257 563 426 563Q503 563 550.50 533Q598 503 624 436Q660 504 729 533.50Q798 563 907 563Z"  horiz-adv-x="1182" vert-adv-y="1000"  />

      
      <glyph glyph-name="uni6e" unicode="&#x6e;" d="M416 563Q526 563 588.50 486Q651 409 651 225L651 0L526 0L526 222Q526 325 492 394.50Q458 464 351 464Q241 464 205.50 393.50Q170 323 170 215L170 0L45 0L45 545L170 545L170 470Q252 563 416 563Z"  horiz-adv-x="691" vert-adv-y="1000"  />

      
      <glyph glyph-name="uni6f" unicode="&#x6f;" d="M387 568Q485 568 563.50 530Q642 492 686.50 424.50Q731 357 731 273Q731 190 686.50 122.50Q642 55 563.50 17Q485-21 387-21Q293-21 210.50 17.50Q128 56 79 123.50Q30 191 30 273Q30 356 79 423.50Q128 491 210 529.50Q292 568 387 568M388 69Q480 69 543 118.50Q606 168 606 273Q606 378 543 428Q480 478 388 478Q330 478 277 457Q224 436 190.50 390Q157 344 157 273Q157 202 190.50 156.50Q224 111 276.50 90Q329 69 388 69Z"  horiz-adv-x="761" vert-adv-y="1000"  />

      
      <glyph glyph-name="uni70" unicode="&#x70;" d="M699 260L699 260Q697 188 665 124.50Q633 61 573.50 21.50Q514-18 434-18Q261-18 170 68L170-190L45-190L45 545L149 545L165 465Q259 557 434 557Q511 557 570.50 519Q630 481 664 415Q698 349 699 267L699 264L699 260M364 70Q429 70 474.50 100.50Q520 131 543.50 176.50Q567 222 568 265Q567 316 545.50 362.50Q524 409 478.50 439.50Q433 470 364 470Q307 470 263 441.50Q219 413 194.50 367.50Q170 322 170 272Q170 217 194 171Q218 125 262.50 97.50Q307 70 364 70Z"  horiz-adv-x="734" vert-adv-y="1000"  />

      
      <glyph glyph-name="uni71" unicode="&#x71;" d="M595 545L699 545L699-190L574-190L574 68Q483-18 310-18Q230-18 170.50 21.50Q111 61 79 124.50Q47 188 45 260L45 264L45 267Q46 349 80 415Q114 481 173.50 519Q233 557 310 557Q497 557 582 482L595 545M380 70Q437 70 481.50 97.50Q526 125 550 171Q574 217 574 272Q574 322 549.50 367.50Q525 413 481 441.50Q437 470 380 470Q315 470 269 439.50Q223 409 200 361.50Q177 314 176 264Q177 213 200 168.50Q223 124 268.50 97Q314 70 380 70Z"  horiz-adv-x="734" vert-adv-y="1000"  />

      
      <glyph glyph-name="uni72" unicode="&#x72;" d="M168 461Q206 501 263 522.50Q320 544 398 552L398 431L288 431Q218 431 194.50 392Q171 353 170 284L170 0L45 0L45 545L149 545L168 461Z"  horiz-adv-x="438" vert-adv-y="1000"  />

      
      <glyph glyph-name="uni73" unicode="&#x73;" d="M415 314Q488 314 541 304Q594 294 629.50 260.50Q665 227 665 162Q665 80 613 39Q561-2 494.50-12.50Q428-23 347-23Q223-23 119 18.50Q15 60 15 178L140 176Q140 121 203.50 95.50Q267 70 347 70Q458 70 502 90Q546 110 546 153Q546 197 499 210.50Q452 224 382 224L338 224Q206 225 110.50 263Q15 301 15 398Q15 502 114 534.50Q213 567 343 567Q467 567 566 526Q665 485 665 367L540 369Q540 434 471.50 455.50Q403 477 342 477Q255 477 197.50 462Q140 447 140 399Q140 356 188.50 334.50Q237 313 340 313L415 314Z"  horiz-adv-x="695" vert-adv-y="1000"  />

      
      <glyph glyph-name="uni74" unicode="&#x74;" d="M274 545L378 545L378 440L274 440L274 0L149 0L149 440L40 440L40 545L149 545L149 663L274 756L274 545Z"  horiz-adv-x="418" vert-adv-y="1000"  />

      
      <glyph glyph-name="uni75" unicode="&#x75;" d="M526 545L651 545L651 0L526 0L526 75Q444-18 280-18Q170-18 107.50 59Q45 136 45 320L45 545L170 545L170 323Q170 220 204 150.50Q238 81 345 81Q455 81 490.50 151.50Q526 222 526 330L526 545Z"  horiz-adv-x="696" vert-adv-y="1000"  />

      
      <glyph glyph-name="uni76" unicode="&#x76;" d="M371 94L562 545L712 546L449 0L292 0L30 545L180 545L371 94Z"  horiz-adv-x="742" vert-adv-y="1000"  />

      
      <glyph glyph-name="uni77" unicode="&#x77;" d="M770 129L946 545L1097 545L835 0L705 0L561 423L416 0L287 0L25 545L175 545L352 128L469 545L652 545L770 129Z"  horiz-adv-x="1122" vert-adv-y="1000"  />

      
      <glyph glyph-name="uni78" unicode="&#x78;" d="M582 545L738 545L492 270L738 0L582 0L374 225L166 0L10 0L257 270L10 545L166 545L374 317L582 545Z"  horiz-adv-x="748" vert-adv-y="1000"  />

      
      <glyph glyph-name="uni79" unicode="&#x79;" d="M778 545L458-123Q434-168 375.50-182.50Q317-197 230-197L229-74Q275-74 294-65.50Q313-57 313-41Q313-30 305.50-14.50Q298 1 296 5L15 545L156 545L407 23L637 545L778 545Z"  horiz-adv-x="793" vert-adv-y="1000"  />

      
      <glyph glyph-name="uni7a" unicode="&#x7a;" d="M45 545L640 544L640 451L213 93L640 92L640 0L45 1L45 94L489 452L45 453L45 545Z"  horiz-adv-x="685" vert-adv-y="1000"  />

      
      <glyph glyph-name="uni7b" unicode="&#x7b;" d="M268 98Q268 41 283 13Q298-15 323.50-22.50Q349-30 395-30L396-123Q304-123 256-114Q208-105 174-58Q140-11 138 94L138 279Q137 329 107 344.50Q77 360 11 360L10 360L11 394L10 427L11 427L11 427Q55 427 81.50 432.50Q108 438 123 456Q138 474 138 510L138 694Q140 798 174 844.50Q208 891 256 900Q304 909 396 909L395 817Q349 817 323.50 809.50Q298 802 283 774Q268 746 268 689L268 503Q262 429 193 394Q264 358 268 284L268 98Z"  horiz-adv-x="421" vert-adv-y="1000"  />

      
      <glyph glyph-name="uni7c" unicode="&#x7c;" d="M143-185L20-185L20 798L143 798L143-185Z"  horiz-adv-x="163" vert-adv-y="1000"  />

      
      <glyph glyph-name="uni7d" unicode="&#x7d;" d="M411 360L410 360L410 360Q344 360 314 344.50Q284 329 283 279L283 94Q281-11 247-58Q213-105 165-114Q117-123 25-123L26-30Q72-30 97.50-22.50Q123-15 138 13Q153 41 153 98L153 284Q157 358 228 394Q159 429 153 503L153 689Q153 746 138 774Q123 802 97.50 809.50Q72 817 26 817L25 909Q117 909 165 900Q213 891 247 844.50Q281 798 283 694L283 510Q283 474 298 456Q313 438 339.50 432.50Q366 427 410 427L411 427L411 360Z"  horiz-adv-x="421" vert-adv-y="1000"  />

      
      <glyph glyph-name="uni7e" unicode="&#x7e;" d="M15 416Q69 459 124 459Q155 459 184 448Q213 437 252 416Q294 394 322 383.50Q350 373 380 373Q435 373 489 416L489 306Q436 264 383 264Q352 264 322.50 275.50Q293 287 254 309Q214 331 185 342Q156 353 126 353Q70 353 15 306L15 416Z"  horiz-adv-x="505" vert-adv-y="1000"  />

      
      <glyph glyph-name="unia1" unicode="&#xa1;" d="M202 545L53 545L53 405L202 405L202 545M215-190L40-190L100 360L155 360L215-190Z"  horiz-adv-x="255" vert-adv-y="1000"  />

      
      <glyph glyph-name="unia2" unicode="&#xa2;" d="M389 67Q444 67 489 86.50Q534 106 562.50 137.50Q591 169 599 204L725 204Q718 150 671.50 99Q625 48 553.50 14.50Q482-19 403-23L403-96L308-96L308-16Q230-1 166.50 39.50Q103 80 66.50 140.50Q30 201 30 272Q30 345 65.50 405.50Q101 466 164 506.50Q227 547 308 561L308 631L403 631L403 567Q538 563 613.50 503Q689 443 726 339L600 339Q591 375 562 407Q533 439 488 458Q443 477 389 477Q315 477 263 450Q211 423 184.50 376.50Q158 330 158 272Q158 222 183 174Q208 126 260 95.50Q312 65 389 67Z"  horiz-adv-x="706" vert-adv-y="1000"  />

      
      <glyph glyph-name="unia3" unicode="&#xa3;" d="M806 111L806 0L32 0L32 111Q78 154 97.50 188Q117 222 117 253Q117 272 113 285L15 285L14 392L66 392Q42 453 42 510Q42 591 97 650.50Q152 710 241 741Q330 772 428 772Q524 772 607.50 741.50Q691 711 742.50 649Q794 587 794 497L656 497Q656 550 620.50 588.50Q585 627 527.50 646.50Q470 666 406 666Q343 666 288 647Q233 628 199 591Q165 554 165 501Q165 448 192 392L583 392L584 285L241 285Q244 272 244 256Q244 192 175 111L806 111Z"  horiz-adv-x="821" vert-adv-y="1000"  />

      
      <glyph glyph-name="unia4" unicode="&#xa4;" d="M550 453Q550 370 499 305L558 246L514 202L455 261Q390 210 307 210Q266 210 227.50 223.50Q189 237 158 261L98 201L55 244L115 304Q91 335 77.50 373.50Q64 412 64 453Q64 536 115 601L55 661L99 705L159 645Q224 696 307 696Q390 696 455 645L514 704L558 660L499 601Q523 570 536.50 532Q550 494 550 453M307 312Q346 312 378.50 330.50Q411 349 429.50 381.50Q448 414 448 453Q448 492 429 524Q410 556 377.50 575Q345 594 307 594Q268 594 236 575Q204 556 185 523.50Q166 491 166 453Q166 414 184.50 381.50Q203 349 235.50 330.50Q268 312 307 312Z"  horiz-adv-x="613" vert-adv-y="1000"  />

      
      <glyph glyph-name="unia5" unicode="&#xa5;" d="M719 740L884 740L569 365L734 365L734 272L525 272L525 243L734 243L734 150L525 150L525 0L380 0L380 150L172 150L172 243L380 243L380 272L172 272L172 365L334 365L20 740L185 740L450 418L719 740Z"  horiz-adv-x="912" vert-adv-y="1000"  />

      
      <glyph glyph-name="unia6" unicode="&#xa6;" d="M143 398L20 398L20 798L143 798L143 398M143-185L20-185L20 215L143 215L143-185Z"  horiz-adv-x="163" vert-adv-y="1000"  />

      
      <glyph glyph-name="unia7" unicode="&#xa7;" d="M775 387Q775 305 707 259Q775 219 775 140Q775 28 659.50-11.50Q544-51 401-51Q256-51 135.50-9.50Q15 32 15 150L145 150Q145 93 233 74Q321 55 401 55Q495 55 566.50 69Q638 83 638 137Q638 178 573.50 189.50Q509 201 402 201L401 201L396 201L389 201L389 201Q294 201 215.50 211.50Q137 222 76 262Q15 302 15 382Q15 443 74 481Q15 517 15 592Q15 709 131.50 745Q248 781 401 781Q545 781 660 740Q775 699 775 581L645 581Q645 634 574 656.50Q503 679 401 677Q295 679 221.50 659.50Q148 640 148 595Q148 531 355 531L389 531Q495 531 571 524.50Q647 518 711 486.50Q775 455 775 387M146 382Q146 304 361 304L401 304Q467 304 513.50 307Q560 310 602 327.50Q644 345 644 384Q644 421 566.50 432Q489 443 401 443Q372 443 355 442L296 441Q146 430 146 382Z"  horiz-adv-x="790" vert-adv-y="1000"  />

      
      <glyph glyph-name="unia8" unicode="&#xa8;" d="M103 783Q70 783 47.50 805.50Q25 828 25 861Q25 893 47.50 916Q70 939 103 939Q135 939 158 916Q181 893 181 861Q181 828 158 805.50Q135 783 103 783M324 783Q291 783 268 805.50Q245 828 245 861Q245 893 268 916Q291 939 324 939Q356 939 378.50 916Q401 893 401 861Q401 828 378.50 805.50Q356 783 324 783Z"  horiz-adv-x="426" vert-adv-y="1000"  />

      
      <glyph glyph-name="unia9" unicode="&#xa9;" d="M382-21Q279-21 192.50 29.50Q106 80 55.50 166.50Q5 253 5 356Q5 459 55.50 545.50Q106 632 192.50 682.50Q279 733 382 733Q486 733 572.50 682.50Q659 632 709 545.50Q759 459 759 356Q759 253 708.50 166.50Q658 80 571.50 29.50Q485-21 382-21M382 62Q462 62 529.50 101.50Q597 141 636.50 208.50Q676 276 676 356Q676 435 636.50 502.50Q597 570 529.50 610Q462 650 382 650Q302 650 234.50 610.50Q167 571 127.50 503.50Q88 436 88 356Q88 276 127.50 208.50Q167 141 234.50 101.50Q302 62 382 62M158 349Q158 403 187.50 445.50Q217 488 269 512Q321 536 385 536Q477 536 527.50 498Q578 460 602 392L522 392Q512 427 475 453Q438 479 387 479Q317 479 278 442.50Q239 406 239 349Q239 318 255 287.50Q271 257 304.50 237.50Q338 218 387 219Q439 219 475.50 245Q512 271 521 306L601 306Q596 270 564.50 236.50Q533 203 485 182.50Q437 162 385 162Q324 162 272 186.50Q220 211 189 254Q158 297 158 349Z"  horiz-adv-x="764" vert-adv-y="1000"  />

      
      <glyph glyph-name="uniaa" unicode="&#xaa;" d="M261 545Q343 545 407 514Q471 483 471 405L471 178L399 178L390 245Q375 216 320 194.50Q265 173 200 173Q150 173 92.50 193.50Q35 214 35 284Q35 349 80 371Q125 393 168 393Q278 393 321.50 394.50Q365 396 378 401.50Q391 407 392 420L392 426Q390 451 350.50 469Q311 487 259 487Q201 488 160.50 471Q120 454 120 415L39 415Q39 486 108 515.50Q177 545 261 545M391 364L391 363L391 364M232 244Q322 244 356.50 280.50Q391 317 391 363Q359 340 262 340Q183 340 152 331.50Q121 323 120 296Q122 272 146.50 258Q171 244 232 244Z"  horiz-adv-x="516" vert-adv-y="1000"  />

      
      <glyph glyph-name="uniab" unicode="&#xab;" d="M153 276L361 65L207 65L5 277L197 479L353 479L153 276M378 276L586 65L432 65L230 277L422 479L578 479L378 276Z"  horiz-adv-x="597" vert-adv-y="1000"  />

      
      <glyph glyph-name="uniac" unicode="&#xac;" d="M618 426L618 163L491 163L491 326L15 326L15 426L618 426Z"  horiz-adv-x="633" vert-adv-y="1000"  />

      
      <glyph glyph-name="uniae" unicode="&#xae;" d="M180 491L180 462L180 491M274 733Q346 733 408.50 696.50Q471 660 507.50 598Q544 536 544 464Q544 391 507.50 329Q471 267 409 230.50Q347 194 274 194Q201 194 139 230.50Q77 267 41 329Q5 391 5 464Q5 537 41 599Q77 661 139 697Q201 733 274 733M274 258Q330 258 377 286Q424 314 452 361Q480 408 480 464Q480 519 452 566Q424 613 376.50 641Q329 669 274 669Q218 669 171 641.50Q124 614 96.50 567Q69 520 69 464Q69 408 96.50 361Q124 314 171 286Q218 258 274 258M416 508Q416 476 397.50 455Q379 434 346 427L419 343L361 343L293 423L184 423L184 343L140 343L140 591L310 591Q358 591 387 568Q416 545 416 509L416 508M370 505Q370 528 362 538Q354 548 341.50 550.50Q329 553 306 553Q299 553 272 552Q245 551 184 551L184 462L306 462Q340 462 355 469Q370 476 370 505Z"  horiz-adv-x="549" vert-adv-y="1000"  />

      
      <glyph glyph-name="uniaf" unicode="&#xaf;" d="M85 800L85 910L522 910L522 800L85 800Z"  horiz-adv-x="600" vert-adv-y="1000"  />

      
      <glyph glyph-name="unib0" unicode="&#xb0;" d="M182 352Q134 352 93.50 376Q53 400 29 440.50Q5 481 5 529Q5 577 29 617.50Q53 658 93.50 682Q134 706 182 706Q231 706 271.50 682.50Q312 659 335.50 618Q359 577 359 529Q359 481 335 440.50Q311 400 270.50 376Q230 352 182 352M182 431Q223 431 251.50 459.50Q280 488 280 529Q280 569 251.50 598Q223 627 182 627Q141 627 112.50 598Q84 569 84 529Q84 488 112.50 459.50Q141 431 182 431Z"  horiz-adv-x="364" vert-adv-y="1000"  />

      
      <glyph glyph-name="unib1" unicode="&#xb1;" d="M285 481L462 481L462 388L285 388L285 211L192 211L192 388L15 388L15 481L192 481L192 658L285 658L285 481M462 191L462 98L15 98L15 191L462 191Z"  horiz-adv-x="477" vert-adv-y="1000"  />

      
      <glyph glyph-name="unib2" unicode="&#xb2;" d="M627 321L627 248L45 248L45 280Q45 365 71 409Q97 453 139.50 470Q182 487 259 499Q286 504 346 510Q410 517 446 524Q482 531 506.50 545Q531 559 531 583Q531 629 471.50 650.50Q412 672 327 671Q244 671 186.50 646Q129 621 129 567L45 568Q45 632 91.50 670.50Q138 709 202 724.50Q266 740 326 740Q436 740 525.50 708.50Q615 677 615 584Q615 533 568 503Q521 473 461.50 461Q402 449 324 441Q289 438 273 435Q190 428 159.50 394Q129 360 129 321L627 321Z"  horiz-adv-x="657" vert-adv-y="1000"  />

      
      <glyph glyph-name="unib3" unicode="&#xb3;" d="M638 408L638 408Q637 319 556 277.50Q475 236 346 236Q252 236 184 261Q116 286 80.50 331.50Q45 377 45 437L128 437Q128 370 191.50 339Q255 308 346 308Q431 307 491 331.50Q551 356 552 409Q552 430 542 440.50Q532 451 496 456.50Q460 462 381 462L262 462L262 535L382 535L413 535Q474 535 507.50 546Q541 557 541 594Q541 631 484.50 649.50Q428 668 346 670Q255 671 191.50 650.50Q128 630 128 583L45 583Q45 676 139 709Q233 742 346 742Q460 742 542.50 714.50Q625 687 625 599Q625 529 574 502Q637 477 638 410L638 409L638 408Z"  horiz-adv-x="688" vert-adv-y="1000"  />

      
      <glyph glyph-name="unib4" unicode="&#xb4;" d="M25 777L95 910L259 910L139 777L25 777Z"  horiz-adv-x="284" vert-adv-y="1000"  />

      
      <glyph glyph-name="unib6" unicode="&#xb6;" d="M867 625L768 625L768-120L638-120L638 625L444 625L444-120L314-120L314 240Q220 240 151 273Q82 306 47 362Q12 418 15 486Q15 609 91.50 674Q168 739 314 740L867 740L867 625Z"  horiz-adv-x="882" vert-adv-y="1000"  />

      
      <glyph glyph-name="unib7" unicode="&#xb7;" d="M66 253Q56 253 48 261Q40 269 40 279Q40 290 48 297.50Q56 305 66 305Q77 305 84.50 297.50Q92 290 92 279Q92 269 84.50 261Q77 253 66 253Z"  horiz-adv-x="132" vert-adv-y="1000"  />

      
      <glyph glyph-name="unib8" unicode="&#xb8;" d="M350-42Q407-42 454.50-60.50Q502-79 501-132Q501-200 435-223.50Q369-247 289-247Q199-247 135-223.50Q71-200 71-124L167-124Q167-168 207-179.50Q247-191 278-191Q300-191 316.50-190Q333-189 355-177Q377-165 377-137Q377-119 364.50-112Q352-105 331-104L304-104L289-104L251-104L251 98L350 98L350-42Z"  horiz-adv-x="600" vert-adv-y="1000"  />

      
      <glyph glyph-name="unib9" unicode="&#xb9;" d="M206 740L206 262L122 262L122 600L15 600L15 658Q97 658 119 684Q141 710 141 740L206 740Z"  horiz-adv-x="221" vert-adv-y="1000"  />

      
      <glyph glyph-name="uniba" unicode="&#xba;" d="M261 555Q324 555 374.50 530.50Q425 506 454 462.50Q483 419 483 364Q483 310 454 267Q425 224 374.50 199.50Q324 175 261 175Q200 175 147 199.50Q94 224 62 267.50Q30 311 30 364Q30 418 62 461.50Q94 505 147 530Q200 555 261 555M261 233Q321 233 361.50 264.50Q402 296 402 364Q402 432 361.50 464Q321 496 261 496Q201 496 156.50 463.50Q112 431 112 364Q112 297 156.50 265Q201 233 261 233Z"  horiz-adv-x="513" vert-adv-y="1000"  />

      
      <glyph glyph-name="unibb" unicode="&#xbb;" d="M165 65L11 65L219 276L19 479L175 479L367 277L165 65M390 65L236 65L444 276L244 479L400 479L592 277L390 65Z"  horiz-adv-x="597" vert-adv-y="1000"  />

      
      <glyph glyph-name="unibf" unicode="&#xbf;" d="M610 545L611 405L458 405L457 545L610 545M860 50Q860-108 734.50-162.50Q609-217 452-217Q351-217 261-201.50Q171-186 100.50-130.50Q30-75 30 34Q30 161 115.50 202.50Q201 244 293 245Q365 245 401 259.50Q437 274 448.50 298.50Q460 323 460 361L611 361Q611 278 585.50 233Q560 188 516 171.50Q472 155 405 154Q325 154 242.50 128.50Q160 103 160 31Q160-35 245.50-64.50Q331-94 454-92Q569-91 649.50-56Q730-21 730 52L860 50Z"  horiz-adv-x="890" vert-adv-y="1000"  />

      
      <glyph glyph-name="unic0" unicode="&#xc0;" d="M957 0L817 0L724 172L233 172L140 0L0 0L401 740L556 740L957 0M479 625L299 294L658 294L479 625M301 910L465 910L535 777L421 777L301 910Z"  horiz-adv-x="957" vert-adv-y="1000"  />

      
      <glyph glyph-name="unic1" unicode="&#xc1;" d="M957 0L817 0L724 172L233 172L140 0L0 0L401 740L556 740L957 0M479 625L299 294L658 294L479 625M423 777L493 910L657 910L537 777L423 777Z"  horiz-adv-x="957" vert-adv-y="1000"  />

      
      <glyph glyph-name="unic2" unicode="&#xc2;" d="M957 0L817 0L724 172L233 172L140 0L0 0L401 740L556 740L957 0M479 625L299 294L658 294L479 625M553 910L733 774L584 774L475 856L373 774L224 774L394 910L553 910Z"  horiz-adv-x="957" vert-adv-y="1000"  />

      
      <glyph glyph-name="unic3" unicode="&#xc3;" d="M957 0L817 0L724 172L233 172L140 0L0 0L401 740L556 740L957 0M479 625L299 294L658 294L479 625M722 920Q722 789 604 789Q562 789 521 801Q480 813 473 815Q452 821 413 821Q373 821 345 811Q317 801 317 779L224 779Q224 910 342 910Q384 910 425 898Q466 886 473 884Q494 878 533 878Q573 878 601 888Q629 898 629 920L722 920Z"  horiz-adv-x="957" vert-adv-y="1000"  />

      
      <glyph glyph-name="unic4" unicode="&#xc4;" d="M957 0L817 0L724 172L233 172L140 0L0 0L401 740L556 740L957 0M479 625L299 294L658 294L479 625M369 783Q336 783 313.50 805.50Q291 828 291 861Q291 893 313.50 916Q336 939 369 939Q401 939 424 916Q447 893 447 861Q447 828 424 805.50Q401 783 369 783M590 783Q557 783 534 805.50Q511 828 511 861Q511 893 534 916Q557 939 590 939Q622 939 644.50 916Q667 893 667 861Q667 828 644.50 805.50Q622 783 590 783Z"  horiz-adv-x="957" vert-adv-y="1000"  />

      
      <glyph glyph-name="unic5" unicode="&#xc5;" d="M957 0L817 0L724 172L233 172L140 0L0 0L401 740L556 740L957 0M479 625L299 294L658 294L479 625M316 935Q316 979 338 1016Q360 1053 397.50 1075Q435 1097 479 1097Q522 1097 559.50 1075Q597 1053 619 1015.50Q641 978 641 935Q641 891 619 853.50Q597 816 560 794Q523 772 479 772Q435 772 397.50 794Q360 816 338 853.50Q316 891 316 935M398 935Q398 901 421.50 877.50Q445 854 479 854Q512 854 535.50 877.50Q559 901 559 935Q559 967 535 991Q511 1015 479 1015Q445 1015 421.50 991.50Q398 968 398 935Z"  horiz-adv-x="957" vert-adv-y="1000"  />

      
      <glyph glyph-name="unic6" unicode="&#xc6;" d="M1379 330L853 330L853 111L1463 115L1463 0L723 0L723 143L304 143L175 0L0 0L670 740L1463 740L1464 625L853 625L853 445L1379 445L1379 330M723 605L413 263L723 263L723 605Z"  horiz-adv-x="1508" vert-adv-y="1000"  />

      
      <glyph glyph-name="unic7" unicode="&#xc7;" d="M923 266Q871 136 770.50 64Q670-8 534-18L534-53Q591-53 638.50-71.50Q686-90 685-143Q685-211 619-234.50Q553-258 473-258Q383-258 319-234.50Q255-211 255-135L351-135Q351-179 391-190.50Q431-202 462-202Q484-202 500.50-201Q517-200 539-188Q561-176 561-148Q561-130 548.50-123Q536-116 515-115L488-115L473-115L435-115L435-17Q323-6 233 47Q143 100 91.50 184Q40 268 40 369Q40 480 99.50 569Q159 658 262 708.50Q365 759 491 759Q642 759 756.50 684Q871 609 922 471L786 469Q765 525 715 565Q665 605 604.50 625.50Q544 646 492 646Q414 646 339.50 613.50Q265 581 217.50 518Q170 455 170 369Q170 281 214 219Q258 157 331.50 125Q405 93 492 93Q543 93 599 112.50Q655 132 704 171Q753 210 782 266L923 266Z"  horiz-adv-x="963" vert-adv-y="1000"  />

      
      <glyph glyph-name="unic8" unicode="&#xc8;" d="M716 330L190 330L190 111L800 115L800 0L60 0L60 740L800 740L801 625L190 625L190 445L716 445L716 330M268 910L432 910L502 777L388 777L268 910Z"  horiz-adv-x="846" vert-adv-y="1000"  />

      
      <glyph glyph-name="unic9" unicode="&#xc9;" d="M716 330L190 330L190 111L800 115L800 0L60 0L60 740L800 740L801 625L190 625L190 445L716 445L716 330M318 777L388 910L552 910L432 777L318 777Z"  horiz-adv-x="846" vert-adv-y="1000"  />

      
      <glyph glyph-name="unica" unicode="&#xca;" d="M716 330L190 330L190 111L800 115L800 0L60 0L60 740L800 740L801 625L190 625L190 445L716 445L716 330M500 910L680 774L531 774L422 856L320 774L171 774L341 910L500 910Z"  horiz-adv-x="846" vert-adv-y="1000"  />

      
      <glyph glyph-name="unicb" unicode="&#xcb;" d="M716 330L190 330L190 111L800 115L800 0L60 0L60 740L800 740L801 625L190 625L190 445L716 445L716 330M308 783Q275 783 252.50 805.50Q230 828 230 861Q230 893 252.50 916Q275 939 308 939Q340 939 363 916Q386 893 386 861Q386 828 363 805.50Q340 783 308 783M529 783Q496 783 473 805.50Q450 828 450 861Q450 893 473 916Q496 939 529 939Q561 939 583.50 916Q606 893 606 861Q606 828 583.50 805.50Q561 783 529 783Z"  horiz-adv-x="846" vert-adv-y="1000"  />

      
      <glyph glyph-name="unicc" unicode="&#xcc;" d="M190 0L60 0L60 740L190 740L190 0M-61 910L103 910L173 777L59 777L-61 910Z"  horiz-adv-x="250" vert-adv-y="1000"  />

      
      <glyph glyph-name="unicd" unicode="&#xcd;" d="M190 0L60 0L60 740L190 740L190 0M65 777L135 910L299 910L179 777L65 777Z"  horiz-adv-x="250" vert-adv-y="1000"  />

      
      <glyph glyph-name="unice" unicode="&#xce;" d="M190 0L60 0L60 740L190 740L190 0M201 910L381 774L232 774L123 856L21 774L-128 774L42 910L201 910Z"  horiz-adv-x="250" vert-adv-y="1000"  />

      
      <glyph glyph-name="unicf" unicode="&#xcf;" d="M190 0L60 0L60 740L190 740L190 0M14 783Q-19 783-41.50 805.50Q-64 828-64 861Q-64 893-41.50 916Q-19 939 14 939Q46 939 69 916Q92 893 92 861Q92 828 69 805.50Q46 783 14 783M235 783Q202 783 179 805.50Q156 828 156 861Q156 893 179 916Q202 939 235 939Q267 939 289.50 916Q312 893 312 861Q312 828 289.50 805.50Q267 783 235 783Z"  horiz-adv-x="250" vert-adv-y="1000"  />

      
      <glyph glyph-name="unid0" unicode="&#xd0;" d="M834 369Q834 264 784 180Q734 96 642 48Q550 0 428 0L74 0L74 312L-5 312L-5 432L74 432L74 740L427 740Q549 740 641.50 692Q734 644 784 560Q834 476 834 369M446 122Q521 122 579.50 150.50Q638 179 671.50 234.50Q705 290 705 369Q705 435 671.50 492Q638 549 578.50 583Q519 617 446 617L204 617L204 432L468 432L468 312L204 312L204 122L446 122Z"  horiz-adv-x="874" vert-adv-y="1000"  />

      
      <glyph glyph-name="unid1" unicode="&#xd1;" d="M190 0L60 0L60 740L190 0M900 0L770 0L900 0M770 179L770 740L900 740L900 0L770 0L190 562L190 0L60 0L60 740L190 740L770 179M716 940Q716 809 598 809Q556 809 515 821Q474 833 467 835Q446 841 407 841Q367 841 339 831Q311 821 311 799L218 799Q218 930 336 930Q378 930 419 918Q460 906 467 904Q488 898 527 898Q567 898 595 908Q623 918 623 940L716 940Z"  horiz-adv-x="960" vert-adv-y="1000"  />

      
      <glyph glyph-name="unid2" unicode="&#xd2;" d="M483 756Q610 756 711.50 705.50Q813 655 870.50 566.50Q928 478 928 367Q928 257 870.50 169Q813 81 712 30.50Q611-20 484-20Q361-20 258 30.50Q155 81 95 169.50Q35 258 35 367Q35 477 95 566Q155 655 257.50 705.50Q360 756 483 756M483 93Q564 93 636 125Q708 157 752 219Q796 281 796 367Q796 451 751.50 514Q707 577 634 610Q561 643 480 643Q392 643 320.50 610Q249 577 208 514.50Q167 452 167 367Q167 280 210.50 218Q254 156 326 124.50Q398 93 483 93M308 910L472 910L542 777L428 777L308 910Z"  horiz-adv-x="963" vert-adv-y="1000"  />

      
      <glyph glyph-name="unid3" unicode="&#xd3;" d="M483 756Q610 756 711.50 705.50Q813 655 870.50 566.50Q928 478 928 367Q928 257 870.50 169Q813 81 712 30.50Q611-20 484-20Q361-20 258 30.50Q155 81 95 169.50Q35 258 35 367Q35 477 95 566Q155 655 257.50 705.50Q360 756 483 756M483 93Q564 93 636 125Q708 157 752 219Q796 281 796 367Q796 451 751.50 514Q707 577 634 610Q561 643 480 643Q392 643 320.50 610Q249 577 208 514.50Q167 452 167 367Q167 280 210.50 218Q254 156 326 124.50Q398 93 483 93M394 777L464 910L628 910L508 777L394 777Z"  horiz-adv-x="963" vert-adv-y="1000"  />

      
      <glyph glyph-name="unid4" unicode="&#xd4;" d="M483 756Q610 756 711.50 705.50Q813 655 870.50 566.50Q928 478 928 367Q928 257 870.50 169Q813 81 712 30.50Q611-20 484-20Q361-20 258 30.50Q155 81 95 169.50Q35 258 35 367Q35 477 95 566Q155 655 257.50 705.50Q360 756 483 756M483 93Q564 93 636 125Q708 157 752 219Q796 281 796 367Q796 451 751.50 514Q707 577 634 610Q561 643 480 643Q392 643 320.50 610Q249 577 208 514.50Q167 452 167 367Q167 280 210.50 218Q254 156 326 124.50Q398 93 483 93M558 910L738 774L589 774L480 856L378 774L229 774L399 910L558 910Z"  horiz-adv-x="963" vert-adv-y="1000"  />

      
      <glyph glyph-name="unid5" unicode="&#xd5;" d="M483 756Q610 756 711.50 705.50Q813 655 870.50 566.50Q928 478 928 367Q928 257 870.50 169Q813 81 712 30.50Q611-20 484-20Q361-20 258 30.50Q155 81 95 169.50Q35 258 35 367Q35 477 95 566Q155 655 257.50 705.50Q360 756 483 756M483 93Q564 93 636 125Q708 157 752 219Q796 281 796 367Q796 451 751.50 514Q707 577 634 610Q561 643 480 643Q392 643 320.50 610Q249 577 208 514.50Q167 452 167 367Q167 280 210.50 218Q254 156 326 124.50Q398 93 483 93M735 940Q735 809 617 809Q575 809 534 821Q493 833 486 835Q465 841 426 841Q386 841 358 831Q330 821 330 799L237 799Q237 930 355 930Q397 930 438 918Q479 906 486 904Q507 898 546 898Q586 898 614 908Q642 918 642 940L735 940Z"  horiz-adv-x="963" vert-adv-y="1000"  />

      
      <glyph glyph-name="unid6" unicode="&#xd6;" d="M483 756Q610 756 711.50 705.50Q813 655 870.50 566.50Q928 478 928 367Q928 257 870.50 169Q813 81 712 30.50Q611-20 484-20Q361-20 258 30.50Q155 81 95 169.50Q35 258 35 367Q35 477 95 566Q155 655 257.50 705.50Q360 756 483 756M483 93Q564 93 636 125Q708 157 752 219Q796 281 796 367Q796 451 751.50 514Q707 577 634 610Q561 643 480 643Q392 643 320.50 610Q249 577 208 514.50Q167 452 167 367Q167 280 210.50 218Q254 156 326 124.50Q398 93 483 93M373 783Q340 783 317.50 805.50Q295 828 295 861Q295 893 317.50 916Q340 939 373 939Q405 939 428 916Q451 893 451 861Q451 828 428 805.50Q405 783 373 783M594 783Q561 783 538 805.50Q515 828 515 861Q515 893 538 916Q561 939 594 939Q626 939 648.50 916Q671 893 671 861Q671 828 648.50 805.50Q626 783 594 783Z"  horiz-adv-x="963" vert-adv-y="1000"  />

      
      <glyph glyph-name="unid7" unicode="&#xd7;" d="M332 514L397 448L272 323L397 198L332 132L206 257L81 132L15 198L140 323L15 448L81 514L206 389L332 514Z"  horiz-adv-x="412" vert-adv-y="1000"  />

      
      <glyph glyph-name="unid8" unicode="&#xd8;" d="M816 633Q870 581 899 513.50Q928 446 928 367Q928 257 870.50 169Q813 81 712 30.50Q611-20 484-20Q373-20 277 22L214-49L79-49L187 74Q116 127 75.50 203Q35 279 35 367Q35 477 95 566Q155 655 257.50 705.50Q360 756 483 756Q622 756 735 694L810 779L945 779L816 633M167 369Q167 302 192.50 249.50Q218 197 265 161L653 601Q575 643 480 643Q392 643 321 610.50Q250 578 208.50 516Q167 454 167 369M483 93Q564 93 636 125Q708 157 752 219Q796 281 796 367Q796 467 733 538L357 113Q417 93 483 93Z"  horiz-adv-x="960" vert-adv-y="1000"  />

      
      <glyph glyph-name="unid9" unicode="&#xd9;" d="M776 740L909 740L909 344Q909 235 855.50 152.50Q802 70 708 24.50Q614-21 494-21Q378-21 278 25Q178 71 117 154Q56 237 55 344L55 740L188 740L188 334Q188 244 241.50 190Q295 136 366 114Q437 92 495 92Q551 92 615.50 113.50Q680 135 728 189.50Q776 244 776 334L776 740M310 910L474 910L544 777L430 777L310 910Z"  horiz-adv-x="964" vert-adv-y="1000"  />

      
      <glyph glyph-name="unida" unicode="&#xda;" d="M776 740L909 740L909 344Q909 235 855.50 152.50Q802 70 708 24.50Q614-21 494-21Q378-21 278 25Q178 71 117 154Q56 237 55 344L55 740L188 740L188 334Q188 244 241.50 190Q295 136 366 114Q437 92 495 92Q551 92 615.50 113.50Q680 135 728 189.50Q776 244 776 334L776 740M419 777L489 910L653 910L533 777L419 777Z"  horiz-adv-x="964" vert-adv-y="1000"  />

      
      <glyph glyph-name="unidb" unicode="&#xdb;" d="M776 740L909 740L909 344Q909 235 855.50 152.50Q802 70 708 24.50Q614-21 494-21Q378-21 278 25Q178 71 117 154Q56 237 55 344L55 740L188 740L188 334Q188 244 241.50 190Q295 136 366 114Q437 92 495 92Q551 92 615.50 113.50Q680 135 728 189.50Q776 244 776 334L776 740M555 910L735 774L586 774L477 856L375 774L226 774L396 910L555 910Z"  horiz-adv-x="964" vert-adv-y="1000"  />

      
      <glyph glyph-name="unidc" unicode="&#xdc;" d="M776 740L909 740L909 344Q909 235 855.50 152.50Q802 70 708 24.50Q614-21 494-21Q378-21 278 25Q178 71 117 154Q56 237 55 344L55 740L188 740L188 334Q188 244 241.50 190Q295 136 366 114Q437 92 495 92Q551 92 615.50 113.50Q680 135 728 189.50Q776 244 776 334L776 740M367 783Q334 783 311.50 805.50Q289 828 289 861Q289 893 311.50 916Q334 939 367 939Q399 939 422 916Q445 893 445 861Q445 828 422 805.50Q399 783 367 783M588 783Q555 783 532 805.50Q509 828 509 861Q509 893 532 916Q555 939 588 939Q620 939 642.50 916Q665 893 665 861Q665 828 642.50 805.50Q620 783 588 783Z"  horiz-adv-x="964" vert-adv-y="1000"  />

      
      <glyph glyph-name="unidd" unicode="&#xdd;" d="M719 740L884 740L525 312L525 0L380 0L380 310L20 740L185 740L450 418L719 740M393 777L463 910L627 910L507 777L393 777Z"  horiz-adv-x="904" vert-adv-y="1000"  />

      
      <glyph glyph-name="unide" unicode="&#xde;" d="M566 640Q659 640 730.50 609Q802 578 841.50 522.50Q881 467 881 394L881 390Q881 270 800.50 205Q720 140 577 140L191 140L191 0L60 0L60 740L190 740L190 640L566 640M559 251Q619 251 657.50 258Q696 265 723.50 294.50Q751 324 751 387Q751 453 723.50 484.50Q696 516 658 523Q620 530 559 530L516 530Q487 530 416.50 529.50Q346 529 190 529L191 251L558 251L559 251Z"  horiz-adv-x="921" vert-adv-y="1000"  />

      
      <glyph glyph-name="unidf" unicode="&#xdf;" d="M577 382Q696 382 784 341.50Q872 301 872 186Q872 111 817 71Q762 31 634 15.50Q506 0 268 0L268 103L302 103Q462 103 549.50 108Q637 113 691 132.50Q745 152 745 194Q745 227 722.50 246Q700 265 668 273.50Q636 282 580 292Q531 300 501.50 307.50Q472 315 452 330.50Q432 346 432 373Q432 406 454 423Q476 440 521 457Q566 475 588.50 492.50Q611 510 611 545Q611 604 557 639Q503 674 396 674Q294 674 244 626.50Q194 579 182 525Q170 471 170 417L170 0L40 0L40 417Q40 570 118 665Q196 760 394 760Q509 760 583 730.50Q657 701 690 654Q723 607 723 553Q723 509 703.50 469.50Q684 430 650 406Q616 382 577 382Z"  horiz-adv-x="912" vert-adv-y="1000"  />

      
      <glyph glyph-name="unie0" unicode="&#xe0;" d="M385 569Q511 569 611 521Q711 473 711 352L711 0L600 0L586 105Q572 76 527.50 49.50Q483 23 420.50 7Q358-9 292-9Q215-9 125 23Q35 55 35 163Q35 234 74 271.50Q113 309 159 320.50Q205 332 241 332Q414 332 480.50 334.50Q547 337 567 345.50Q587 354 588 376L588 385Q587 410 558.50 431.50Q530 453 483 466Q436 479 383 479Q293 481 230 454Q167 427 167 367L41 367Q41 444 96 489Q151 534 229 551.50Q307 569 385 569M340 101Q480 101 533.50 158Q587 215 587 287Q538 250 387 250Q304 250 258.50 245Q213 240 191 225.50Q169 211 167 183Q170 145 208.50 123Q247 101 340 101M191 730L355 730L425 597L311 597L191 730Z"  horiz-adv-x="756" vert-adv-y="1000"  />

      
      <glyph glyph-name="unie1" unicode="&#xe1;" d="M385 569Q511 569 611 521Q711 473 711 352L711 0L600 0L586 105Q572 76 527.50 49.50Q483 23 420.50 7Q358-9 292-9Q215-9 125 23Q35 55 35 163Q35 234 74 271.50Q113 309 159 320.50Q205 332 241 332Q414 332 480.50 334.50Q547 337 567 345.50Q587 354 588 376L588 385Q587 410 558.50 431.50Q530 453 483 466Q436 479 383 479Q293 481 230 454Q167 427 167 367L41 367Q41 444 96 489Q151 534 229 551.50Q307 569 385 569M340 101Q480 101 533.50 158Q587 215 587 287Q538 250 387 250Q304 250 258.50 245Q213 240 191 225.50Q169 211 167 183Q170 145 208.50 123Q247 101 340 101M286 597L356 730L520 730L400 597L286 597Z"  horiz-adv-x="756" vert-adv-y="1000"  />

      
      <glyph glyph-name="unie2" unicode="&#xe2;" d="M385 569Q511 569 611 521Q711 473 711 352L711 0L600 0L586 105Q572 76 527.50 49.50Q483 23 420.50 7Q358-9 292-9Q215-9 125 23Q35 55 35 163Q35 234 74 271.50Q113 309 159 320.50Q205 332 241 332Q414 332 480.50 334.50Q547 337 567 345.50Q587 354 588 376L588 385Q587 410 558.50 431.50Q530 453 483 466Q436 479 383 479Q293 481 230 454Q167 427 167 367L41 367Q41 444 96 489Q151 534 229 551.50Q307 569 385 569M340 101Q480 101 533.50 158Q587 215 587 287Q538 250 387 250Q304 250 258.50 245Q213 240 191 225.50Q169 211 167 183Q170 145 208.50 123Q247 101 340 101M451 730L631 594L482 594L373 676L271 594L122 594L292 730L451 730Z"  horiz-adv-x="756" vert-adv-y="1000"  />

      
      <glyph glyph-name="unie3" unicode="&#xe3;" d="M385 569Q511 569 611 521Q711 473 711 352L711 0L600 0L586 105Q572 76 527.50 49.50Q483 23 420.50 7Q358-9 292-9Q215-9 125 23Q35 55 35 163Q35 234 74 271.50Q113 309 159 320.50Q205 332 241 332Q414 332 480.50 334.50Q547 337 567 345.50Q587 354 588 376L588 385Q587 410 558.50 431.50Q530 453 483 466Q436 479 383 479Q293 481 230 454Q167 427 167 367L41 367Q41 444 96 489Q151 534 229 551.50Q307 569 385 569M340 101Q480 101 533.50 158Q587 215 587 287Q538 250 387 250Q304 250 258.50 245Q213 240 191 225.50Q169 211 167 183Q170 145 208.50 123Q247 101 340 101M618 739Q618 608 500 608Q458 608 417 620Q376 632 369 634Q348 640 309 640Q269 640 241 630Q213 620 213 598L120 598Q120 729 238 729Q280 729 321 717Q362 705 369 703Q390 697 429 697Q469 697 497 707Q525 717 525 739L618 739Z"  horiz-adv-x="756" vert-adv-y="1000"  />

      
      <glyph glyph-name="unie4" unicode="&#xe4;" d="M385 569Q511 569 611 521Q711 473 711 352L711 0L600 0L586 105Q572 76 527.50 49.50Q483 23 420.50 7Q358-9 292-9Q215-9 125 23Q35 55 35 163Q35 234 74 271.50Q113 309 159 320.50Q205 332 241 332Q414 332 480.50 334.50Q547 337 567 345.50Q587 354 588 376L588 385Q587 410 558.50 431.50Q530 453 483 466Q436 479 383 479Q293 481 230 454Q167 427 167 367L41 367Q41 444 96 489Q151 534 229 551.50Q307 569 385 569M340 101Q480 101 533.50 158Q587 215 587 287Q538 250 387 250Q304 250 258.50 245Q213 240 191 225.50Q169 211 167 183Q170 145 208.50 123Q247 101 340 101M261 603Q228 603 205.50 625.50Q183 648 183 681Q183 713 205.50 736Q228 759 261 759Q293 759 316 736Q339 713 339 681Q339 648 316 625.50Q293 603 261 603M482 603Q449 603 426 625.50Q403 648 403 681Q403 713 426 736Q449 759 482 759Q514 759 536.50 736Q559 713 559 681Q559 648 536.50 625.50Q514 603 482 603Z"  horiz-adv-x="756" vert-adv-y="1000"  />

      
      <glyph glyph-name="unie5" unicode="&#xe5;" d="M385 569Q511 569 611 521Q711 473 711 352L711 0L600 0L586 105Q572 76 527.50 49.50Q483 23 420.50 7Q358-9 292-9Q215-9 125 23Q35 55 35 163Q35 234 74 271.50Q113 309 159 320.50Q205 332 241 332Q414 332 480.50 334.50Q547 337 567 345.50Q587 354 588 376L588 385Q587 410 558.50 431.50Q530 453 483 466Q436 479 383 479Q293 481 230 454Q167 427 167 367L41 367Q41 444 96 489Q151 534 229 551.50Q307 569 385 569M340 101Q480 101 533.50 158Q587 215 587 287Q538 250 387 250Q304 250 258.50 245Q213 240 191 225.50Q169 211 167 183Q170 145 208.50 123Q247 101 340 101M208 756Q208 800 230 837Q252 874 289.50 896Q327 918 371 918Q414 918 451.50 896Q489 874 511 836.50Q533 799 533 756Q533 712 511 674.50Q489 637 452 615Q415 593 371 593Q327 593 289.50 615Q252 637 230 674.50Q208 712 208 756M290 756Q290 722 313.50 698.50Q337 675 371 675Q404 675 427.50 698.50Q451 722 451 756Q451 788 427 812Q403 836 371 836Q337 836 313.50 812.50Q290 789 290 756Z"  horiz-adv-x="756" vert-adv-y="1000"  />

      
      <glyph glyph-name="unie6" unicode="&#xe6;" d="M1286 265L718 265Q721 214 747 169.50Q773 125 824 97Q875 69 948 69Q1011 69 1059.50 91.50Q1108 114 1134.50 147.50Q1161 181 1161 212L1286 212Q1286 160 1246 106Q1206 52 1129 16Q1052-20 946-20Q847-20 764 20.50Q681 61 635 131Q627 107 586.50 74Q546 41 471 16Q396-9 292-9Q215-9 125 23Q35 55 35 163Q35 234 74 271.50Q113 309 159 320.50Q205 332 241 332Q413 332 479.50 334.50Q546 337 566.50 345.50Q587 354 588 375L588 385Q587 410 558.50 431.50Q530 453 483 466Q436 479 383 479Q293 481 230 454Q167 427 167 367L41 367Q41 444 96 489Q151 534 229 551.50Q307 569 385 569Q470 569 549 546.50Q628 524 672 470Q720 519 791 545.50Q862 572 946 572Q1047 572 1123.50 536Q1200 500 1242.50 434.50Q1285 369 1286 281L1286 265M948 482Q862 482 809 444Q756 406 733 344L1153 344Q1136 406 1086.50 444Q1037 482 948 482M340 101Q478 101 532 156.50Q586 212 587 284L587 287Q538 250 387 250Q304 250 258.50 245Q213 240 191 225.50Q169 211 167 183Q170 145 208.50 123Q247 101 340 101Z"  horiz-adv-x="1316" vert-adv-y="1000"  />

      
      <glyph glyph-name="unie7" unicode="&#xe7;" d="M389 67Q444 67 489 86.50Q534 106 562.50 137.50Q591 169 599 204L725 204Q719 154 678 105.50Q637 57 573 23.50Q509-10 437-20L437-77Q494-77 541.50-95.50Q589-114 588-167Q588-235 522-258.50Q456-282 376-282Q286-282 222-258.50Q158-235 158-159L254-159Q254-203 294-214.50Q334-226 365-226Q387-226 403.50-225Q420-224 442-212Q464-200 464-172Q464-154 451.50-147Q439-140 418-139L391-139L376-139L338-139L338-20Q253-11 182.50 29.50Q112 70 71 133Q30 196 30 272Q30 356 76.50 423.50Q123 491 204.50 529Q286 567 386 567Q530 567 609 507Q688 447 726 339L600 339Q591 375 562 407Q533 439 488 458Q443 477 389 477Q315 477 263 450Q211 423 184.50 376.50Q158 330 158 272Q158 222 183 174Q208 126 260 95.50Q312 65 389 67Z"  horiz-adv-x="756" vert-adv-y="1000"  />

      
      <glyph glyph-name="unie8" unicode="&#xe8;" d="M723 265L155 265Q158 214 184 169.50Q210 125 261 97Q312 69 385 69Q448 69 496.50 91.50Q545 114 571.50 147.50Q598 181 598 212L723 212Q723 160 683 106Q643 52 566 16Q489-20 383-20Q288-20 207 17.50Q126 55 78 122.50Q30 190 30 276Q30 364 76.50 431.50Q123 499 203.50 535.50Q284 572 383 572Q484 572 560.50 536Q637 500 679.50 434.50Q722 369 723 281L723 265M385 482Q299 482 246 444Q193 406 170 344L590 344Q573 406 523.50 444Q474 482 385 482M210 730L374 730L444 597L330 597L210 730Z"  horiz-adv-x="753" vert-adv-y="1000"  />

      
      <glyph glyph-name="unie9" unicode="&#xe9;" d="M723 265L155 265Q158 214 184 169.50Q210 125 261 97Q312 69 385 69Q448 69 496.50 91.50Q545 114 571.50 147.50Q598 181 598 212L723 212Q723 160 683 106Q643 52 566 16Q489-20 383-20Q288-20 207 17.50Q126 55 78 122.50Q30 190 30 276Q30 364 76.50 431.50Q123 499 203.50 535.50Q284 572 383 572Q484 572 560.50 536Q637 500 679.50 434.50Q722 369 723 281L723 265M385 482Q299 482 246 444Q193 406 170 344L590 344Q573 406 523.50 444Q474 482 385 482M305 597L375 730L539 730L419 597L305 597Z"  horiz-adv-x="753" vert-adv-y="1000"  />

      
      <glyph glyph-name="uniea" unicode="&#xea;" d="M723 265L155 265Q158 214 184 169.50Q210 125 261 97Q312 69 385 69Q448 69 496.50 91.50Q545 114 571.50 147.50Q598 181 598 212L723 212Q723 160 683 106Q643 52 566 16Q489-20 383-20Q288-20 207 17.50Q126 55 78 122.50Q30 190 30 276Q30 364 76.50 431.50Q123 499 203.50 535.50Q284 572 383 572Q484 572 560.50 536Q637 500 679.50 434.50Q722 369 723 281L723 265M385 482Q299 482 246 444Q193 406 170 344L590 344Q573 406 523.50 444Q474 482 385 482M457 730L637 594L488 594L379 676L277 594L128 594L298 730L457 730Z"  horiz-adv-x="753" vert-adv-y="1000"  />

      
      <glyph glyph-name="unieb" unicode="&#xeb;" d="M723 265L155 265Q158 214 184 169.50Q210 125 261 97Q312 69 385 69Q448 69 496.50 91.50Q545 114 571.50 147.50Q598 181 598 212L723 212Q723 160 683 106Q643 52 566 16Q489-20 383-20Q288-20 207 17.50Q126 55 78 122.50Q30 190 30 276Q30 364 76.50 431.50Q123 499 203.50 535.50Q284 572 383 572Q484 572 560.50 536Q637 500 679.50 434.50Q722 369 723 281L723 265M385 482Q299 482 246 444Q193 406 170 344L590 344Q573 406 523.50 444Q474 482 385 482M274 603Q241 603 218.50 625.50Q196 648 196 681Q196 713 218.50 736Q241 759 274 759Q306 759 329 736Q352 713 352 681Q352 648 329 625.50Q306 603 274 603M495 603Q462 603 439 625.50Q416 648 416 681Q416 713 439 736Q462 759 495 759Q527 759 549.50 736Q572 713 572 681Q572 648 549.50 625.50Q527 603 495 603Z"  horiz-adv-x="753" vert-adv-y="1000"  />

      
      <glyph glyph-name="uniec" unicode="&#xec;" d="M-65 697L99 697L169 564L55 564L-65 697M175 0L50 0L50 545L175 545L175 0Z"  horiz-adv-x="220" vert-adv-y="1000"  />

      
      <glyph glyph-name="unied" unicode="&#xed;" d="M50 565L120 698L284 698L164 565L50 565M170 0L45 0L45 545L170 545L170 0Z"  horiz-adv-x="329" vert-adv-y="1000"  />

      
      <glyph glyph-name="uniee" unicode="&#xee;" d="M196 706L376 570L227 570L118 652L16 570L-133 570L37 706L196 706M185 0L60 0L60 545L185 545L185 0Z"  horiz-adv-x="243" vert-adv-y="1000"  />

      
      <glyph glyph-name="unief" unicode="&#xef;" d="M48 569Q15 569-7.50 591.50Q-30 614-30 647Q-30 679-7.50 702Q15 725 48 725Q80 725 103 702Q126 679 126 647Q126 614 103 591.50Q80 569 48 569M269 569Q236 569 213 591.50Q190 614 190 647Q190 679 213 702Q236 725 269 725Q301 725 323.50 702Q346 679 346 647Q346 614 323.50 591.50Q301 569 269 569M222 0L97 0L97 545L222 545L222 0Z"  horiz-adv-x="316" vert-adv-y="1000"  />

      
      <glyph glyph-name="unif0" unicode="&#xf0;" d="M617 497Q671 457 701 399.50Q731 342 731 273Q731 190 686.50 122.50Q642 55 563.50 17Q485-21 387-21Q293-21 210.50 17.50Q128 56 79 123.50Q30 191 30 273Q30 356 79 423.50Q128 491 210 529.50Q292 568 387 568L398 568L354 601L165 550L84 611L270 661Q225 692 161 739L306 739L375 689L557 737L637 677L457 629Q567 547 617 497M388 69Q480 69 543 118.50Q606 168 606 272Q606 340 566 404Q536 442 489.50 460Q443 478 388 478Q330 478 277 457Q224 436 190.50 390Q157 344 157 273Q157 202 190.50 156.50Q224 111 276.50 90Q329 69 388 69Z"  horiz-adv-x="761" vert-adv-y="1000"  />

      
      <glyph glyph-name="unif1" unicode="&#xf1;" d="M416 563Q526 563 588.50 486Q651 409 651 225L651 0L526 0L526 222Q526 325 492 394.50Q458 464 351 464Q241 464 205.50 393.50Q170 323 170 215L170 0L45 0L45 545L170 545L170 470Q252 563 416 563M586 743Q586 612 468 612Q426 612 385 624Q344 636 337 638Q316 644 277 644Q237 644 209 634Q181 624 181 602L88 602Q88 733 206 733Q248 733 289 721Q330 709 337 707Q358 701 397 701Q437 701 465 711Q493 721 493 743L586 743Z"  horiz-adv-x="691" vert-adv-y="1000"  />

      
      <glyph glyph-name="unif2" unicode="&#xf2;" d="M387 568Q485 568 563.50 530Q642 492 686.50 424.50Q731 357 731 273Q731 190 686.50 122.50Q642 55 563.50 17Q485-21 387-21Q293-21 210.50 17.50Q128 56 79 123.50Q30 191 30 273Q30 356 79 423.50Q128 491 210 529.50Q292 568 387 568M388 69Q480 69 543 118.50Q606 168 606 273Q606 378 543 428Q480 478 388 478Q330 478 277 457Q224 436 190.50 390Q157 344 157 273Q157 202 190.50 156.50Q224 111 276.50 90Q329 69 388 69M212 730L376 730L446 597L332 597L212 730Z"  horiz-adv-x="761" vert-adv-y="1000"  />

      
      <glyph glyph-name="unif3" unicode="&#xf3;" d="M387 568Q485 568 563.50 530Q642 492 686.50 424.50Q731 357 731 273Q731 190 686.50 122.50Q642 55 563.50 17Q485-21 387-21Q293-21 210.50 17.50Q128 56 79 123.50Q30 191 30 273Q30 356 79 423.50Q128 491 210 529.50Q292 568 387 568M388 69Q480 69 543 118.50Q606 168 606 273Q606 378 543 428Q480 478 388 478Q330 478 277 457Q224 436 190.50 390Q157 344 157 273Q157 202 190.50 156.50Q224 111 276.50 90Q329 69 388 69M307 597L377 730L541 730L421 597L307 597Z"  horiz-adv-x="761" vert-adv-y="1000"  />

      
      <glyph glyph-name="unif4" unicode="&#xf4;" d="M387 568Q485 568 563.50 530Q642 492 686.50 424.50Q731 357 731 273Q731 190 686.50 122.50Q642 55 563.50 17Q485-21 387-21Q293-21 210.50 17.50Q128 56 79 123.50Q30 191 30 273Q30 356 79 423.50Q128 491 210 529.50Q292 568 387 568M388 69Q480 69 543 118.50Q606 168 606 273Q606 378 543 428Q480 478 388 478Q330 478 277 457Q224 436 190.50 390Q157 344 157 273Q157 202 190.50 156.50Q224 111 276.50 90Q329 69 388 69M464 730L644 594L495 594L386 676L284 594L135 594L305 730L464 730Z"  horiz-adv-x="761" vert-adv-y="1000"  />

      
      <glyph glyph-name="unif5" unicode="&#xf5;" d="M387 568Q485 568 563.50 530Q642 492 686.50 424.50Q731 357 731 273Q731 190 686.50 122.50Q642 55 563.50 17Q485-21 387-21Q293-21 210.50 17.50Q128 56 79 123.50Q30 191 30 273Q30 356 79 423.50Q128 491 210 529.50Q292 568 387 568M388 69Q480 69 543 118.50Q606 168 606 273Q606 378 543 428Q480 478 388 478Q330 478 277 457Q224 436 190.50 390Q157 344 157 273Q157 202 190.50 156.50Q224 111 276.50 90Q329 69 388 69M637 729Q637 598 519 598Q477 598 436 610Q395 622 388 624Q367 630 328 630Q288 630 260 620Q232 610 232 588L139 588Q139 719 257 719Q299 719 340 707Q381 695 388 693Q409 687 448 687Q488 687 516 697Q544 707 544 729L637 729Z"  horiz-adv-x="761" vert-adv-y="1000"  />

      
      <glyph glyph-name="unif6" unicode="&#xf6;" d="M387 568Q485 568 563.50 530Q642 492 686.50 424.50Q731 357 731 273Q731 190 686.50 122.50Q642 55 563.50 17Q485-21 387-21Q293-21 210.50 17.50Q128 56 79 123.50Q30 191 30 273Q30 356 79 423.50Q128 491 210 529.50Q292 568 387 568M388 69Q480 69 543 118.50Q606 168 606 273Q606 378 543 428Q480 478 388 478Q330 478 277 457Q224 436 190.50 390Q157 344 157 273Q157 202 190.50 156.50Q224 111 276.50 90Q329 69 388 69M275 603Q242 603 219.50 625.50Q197 648 197 681Q197 713 219.50 736Q242 759 275 759Q307 759 330 736Q353 713 353 681Q353 648 330 625.50Q307 603 275 603M496 603Q463 603 440 625.50Q417 648 417 681Q417 713 440 736Q463 759 496 759Q528 759 550.50 736Q573 713 573 681Q573 648 550.50 625.50Q528 603 496 603Z"  horiz-adv-x="761" vert-adv-y="1000"  />

      
      <glyph glyph-name="unif7" unicode="&#xf7;" d="M240 428Q212 428 193.50 446.50Q175 465 175 493Q175 520 193.50 539Q212 558 240 558Q267 558 286 539Q305 520 305 493Q305 465 286 446.50Q267 428 240 428M462 370L462 277L15 277L15 370L462 370M240 88Q212 88 193.50 106.50Q175 125 175 153Q175 180 193.50 199Q212 218 240 218Q267 218 286 199Q305 180 305 153Q305 125 286 106.50Q267 88 240 88Z"  horiz-adv-x="477" vert-adv-y="1000"  />

      
      <glyph glyph-name="unif8" unicode="&#xf8;" d="M594 504Q652 464 684 404Q716 344 716 273Q716 190 671.50 122.50Q627 55 548.50 17Q470-21 372-21Q289-21 209 11L176-31L61-31L130 57Q76 98 45.50 153.50Q15 209 15 273Q15 356 64 423.50Q113 491 195 529.50Q277 568 372 568Q447 568 511 545L540 582L655 582L594 504M142 273Q142 190 192 137L451 468Q415 478 373 478Q315 478 262 457Q209 436 175.50 390Q142 344 142 273M373 69Q465 69 528 118.50Q591 168 591 273Q591 372 532 424L268 87Q319 69 373 69Z"  horiz-adv-x="741" vert-adv-y="1000"  />

      
      <glyph glyph-name="unif9" unicode="&#xf9;" d="M526 545L651 545L651 0L526 0L526 75Q444-18 280-18Q170-18 107.50 59Q45 136 45 320L45 545L170 545L170 323Q170 220 204 150.50Q238 81 345 81Q455 81 490.50 151.50Q526 222 526 330L526 545M173 730L337 730L407 597L293 597L173 730Z"  horiz-adv-x="696" vert-adv-y="1000"  />

      
      <glyph glyph-name="unifa" unicode="&#xfa;" d="M526 545L651 545L651 0L526 0L526 75Q444-18 280-18Q170-18 107.50 59Q45 136 45 320L45 545L170 545L170 323Q170 220 204 150.50Q238 81 345 81Q455 81 490.50 151.50Q526 222 526 330L526 545M262 597L332 730L496 730L376 597L262 597Z"  horiz-adv-x="696" vert-adv-y="1000"  />

      
      <glyph glyph-name="unifb" unicode="&#xfb;" d="M526 545L651 545L651 0L526 0L526 75Q444-18 280-18Q170-18 107.50 59Q45 136 45 320L45 545L170 545L170 323Q170 220 204 150.50Q238 81 345 81Q455 81 490.50 151.50Q526 222 526 330L526 545M418 730L598 594L449 594L340 676L238 594L89 594L259 730L418 730Z"  horiz-adv-x="696" vert-adv-y="1000"  />

      
      <glyph glyph-name="unifc" unicode="&#xfc;" d="M526 545L651 545L651 0L526 0L526 75Q444-18 280-18Q170-18 107.50 59Q45 136 45 320L45 545L170 545L170 323Q170 220 204 150.50Q238 81 345 81Q455 81 490.50 151.50Q526 222 526 330L526 545M230 603Q197 603 174.50 625.50Q152 648 152 681Q152 713 174.50 736Q197 759 230 759Q262 759 285 736Q308 713 308 681Q308 648 285 625.50Q262 603 230 603M451 603Q418 603 395 625.50Q372 648 372 681Q372 713 395 736Q418 759 451 759Q483 759 505.50 736Q528 713 528 681Q528 648 505.50 625.50Q483 603 451 603Z"  horiz-adv-x="696" vert-adv-y="1000"  />

      
      <glyph glyph-name="unifd" unicode="&#xfd;" d="M778 545L458-123Q434-168 375.50-182.50Q317-197 230-197L229-74Q275-74 294-65.50Q313-57 313-41Q313-30 305.50-14.50Q298 1 296 5L15 545L156 545L407 23L637 545L778 545M322 597L392 730L556 730L436 597L322 597Z"  horiz-adv-x="793" vert-adv-y="1000"  />

      
      <glyph glyph-name="unife" unicode="&#xfe;" d="M700 177L700 177Q698 105 666 41.50Q634-22 574.50-61.50Q515-101 435-101Q262-101 170-14L170-190L45-190L45 545L170 545L170 386Q263 474 435 474Q512 474 571.50 436Q631 398 665 332Q699 266 700 184L700 181L700 177M365-13Q430-13 475.50 17.50Q521 48 544.50 93.50Q568 139 569 182Q568 233 546.50 279.50Q525 326 479.50 356.50Q434 387 365 387Q308 387 264 358.50Q220 330 195.50 284.50Q171 239 171 189Q171 134 195 88Q219 42 263.50 14.50Q308-13 365-13Z"  horiz-adv-x="735" vert-adv-y="1000"  />

      
      <glyph glyph-name="uniff" unicode="&#xff;" d="M778 545L458-123Q434-168 375.50-182.50Q317-197 230-197L229-74Q275-74 294-65.50Q313-57 313-41Q313-30 305.50-14.50Q298 1 296 5L15 545L156 545L407 23L637 545L778 545M295 603Q262 603 239.50 625.50Q217 648 217 681Q217 713 239.50 736Q262 759 295 759Q327 759 350 736Q373 713 373 681Q373 648 350 625.50Q327 603 295 603M516 603Q483 603 460 625.50Q437 648 437 681Q437 713 460 736Q483 759 516 759Q548 759 570.50 736Q593 713 593 681Q593 648 570.50 625.50Q548 603 516 603Z"  horiz-adv-x="793" vert-adv-y="1000"  />

      
      <glyph glyph-name="uni0100" unicode="&#x0100;" d="M957 0L817 0L724 172L233 172L140 0L0 0L401 740L556 740L957 0M479 625L299 294L658 294L479 625M260 773L260 883L697 883L697 773L260 773Z"  horiz-adv-x="957" vert-adv-y="1000"  />

      
      <glyph glyph-name="uni0101" unicode="&#x0101;" d="M385 569Q511 569 611 521Q711 473 711 352L711 0L600 0L586 105Q572 76 527.50 49.50Q483 23 420.50 7Q358-9 292-9Q215-9 125 23Q35 55 35 163Q35 234 74 271.50Q113 309 159 320.50Q205 332 241 332Q414 332 480.50 334.50Q547 337 567 345.50Q587 354 588 376L588 385Q587 410 558.50 431.50Q530 453 483 466Q436 479 383 479Q293 481 230 454Q167 427 167 367L41 367Q41 444 96 489Q151 534 229 551.50Q307 569 385 569M340 101Q480 101 533.50 158Q587 215 587 287Q538 250 387 250Q304 250 258.50 245Q213 240 191 225.50Q169 211 167 183Q170 145 208.50 123Q247 101 340 101M156 602L156 712L593 712L593 602L156 602Z"  horiz-adv-x="756" vert-adv-y="1000"  />

      
      <glyph glyph-name="uni0102" unicode="&#x0102;" d="M957 0L817 0L724 172L233 172L140 0L0 0L401 740L556 740L957 0M479 625L299 294L658 294L479 625M722 984Q722 885 653.50 835Q585 785 476 785Q365 785 296 835Q227 885 227 984L338 984Q338 928 377 892Q416 856 475 856Q532 856 571.50 892Q611 928 611 984L722 984Z"  horiz-adv-x="957" vert-adv-y="1000"  />

      
      <glyph glyph-name="uni0103" unicode="&#x0103;" d="M385 569Q511 569 611 521Q711 473 711 352L711 0L600 0L586 105Q572 76 527.50 49.50Q483 23 420.50 7Q358-9 292-9Q215-9 125 23Q35 55 35 163Q35 234 74 271.50Q113 309 159 320.50Q205 332 241 332Q414 332 480.50 334.50Q547 337 567 345.50Q587 354 588 376L588 385Q587 410 558.50 431.50Q530 453 483 466Q436 479 383 479Q293 481 230 454Q167 427 167 367L41 367Q41 444 96 489Q151 534 229 551.50Q307 569 385 569M340 101Q480 101 533.50 158Q587 215 587 287Q538 250 387 250Q304 250 258.50 245Q213 240 191 225.50Q169 211 167 183Q170 145 208.50 123Q247 101 340 101M618 801Q618 702 549.50 652Q481 602 372 602Q261 602 192 652Q123 702 123 801L234 801Q234 745 273 709Q312 673 371 673Q428 673 467.50 709Q507 745 507 801L618 801Z"  horiz-adv-x="756" vert-adv-y="1000"  />

      
      <glyph glyph-name="uni0104" unicode="&#x0104;" d="M845 0Q792 0 775.50-18Q759-36 759-69Q759-102 775.50-120Q792-138 845-138L845-181Q777-183 737.50-172.50Q698-162 680.50-137.50Q663-113 663-69Q663-13 693 12.50Q723 38 794 42L724 172L233 172L140 0L0 0L401 740L556 740L957 0L845 0M479 625L299 294L658 294L479 625Z"  horiz-adv-x="957" vert-adv-y="1000"  />

      
      <glyph glyph-name="uni0105" unicode="&#x0105;" d="M385 569Q511 569 611 521Q711 473 711 352L711 0L706 0Q653 0 636.50-18Q620-36 620-69Q620-102 636.50-120Q653-138 706-138L706-181Q638-183 598.50-172.50Q559-162 541.50-137.50Q524-113 524-69Q524-26 541-1.50Q558 23 596 34L586 105Q572 76 527.50 49.50Q483 23 420.50 7Q358-9 292-9Q215-9 125 23Q35 55 35 163Q35 234 74 271.50Q113 309 159 320.50Q205 332 241 332Q414 332 480.50 334.50Q547 337 567 345.50Q587 354 588 376L588 385Q587 410 558.50 431.50Q530 453 483 466Q436 479 383 479Q293 481 230 454Q167 427 167 367L41 367Q41 444 96 489Q151 534 229 551.50Q307 569 385 569M340 101Q480 101 533.50 158Q587 215 587 287Q538 250 387 250Q304 250 258.50 245Q213 240 191 225.50Q169 211 167 183Q170 145 208.50 123Q247 101 340 101Z"  horiz-adv-x="756" vert-adv-y="1000"  />

      
      <glyph glyph-name="uni0106" unicode="&#x0106;" d="M40 369Q40 480 99.50 569Q159 658 262 708.50Q365 759 491 759Q642 759 756.50 684Q871 609 922 471L786 469Q765 525 715 565Q665 605 604.50 625.50Q544 646 492 646Q414 646 339.50 613.50Q265 581 217.50 518Q170 455 170 369Q170 281 214 219Q258 157 331.50 125Q405 93 492 93Q543 93 599 112.50Q655 132 704 171Q753 210 782 266L923 266Q867 126 754.50 53Q642-20 491-20Q366-20 262.50 31Q159 82 99.50 171Q40 260 40 369M410 792L480 925L644 925L524 792L410 792Z"  horiz-adv-x="963" vert-adv-y="1000"  />

      
      <glyph glyph-name="uni0107" unicode="&#x0107;" d="M30 272Q30 356 76.50 423.50Q123 491 204.50 529Q286 567 386 567Q530 567 609 507Q688 447 726 339L600 339Q591 375 562 407Q533 439 488 458Q443 477 389 477Q315 477 263 450Q211 423 184.50 376.50Q158 330 158 272Q158 222 183 174Q208 126 260 95.50Q312 65 389 67Q444 67 489 86.50Q534 106 562.50 137.50Q591 169 599 204L725 204Q718 148 668.50 95.50Q619 43 543.50 10Q468-23 386-23Q291-23 209 15.50Q127 54 78.50 122Q30 190 30 272M309 599L379 732L543 732L423 599L309 599Z"  horiz-adv-x="756" vert-adv-y="1000"  />

      
      <glyph glyph-name="uni010A" unicode="&#x010A;" d="M40 369Q40 480 99.50 569Q159 658 262 708.50Q365 759 491 759Q642 759 756.50 684Q871 609 922 471L786 469Q765 525 715 565Q665 605 604.50 625.50Q544 646 492 646Q414 646 339.50 613.50Q265 581 217.50 518Q170 455 170 369Q170 281 214 219Q258 157 331.50 125Q405 93 492 93Q543 93 599 112.50Q655 132 704 171Q753 210 782 266L923 266Q867 126 754.50 53Q642-20 491-20Q366-20 262.50 31Q159 82 99.50 171Q40 260 40 369M473 794Q440 794 417 816.50Q394 839 394 872Q394 904 417 927Q440 950 473 950Q505 950 527.50 927Q550 904 550 872Q550 839 527.50 816.50Q505 794 473 794Z"  horiz-adv-x="963" vert-adv-y="1000"  />

      
      <glyph glyph-name="uni010B" unicode="&#x010B;" d="M30 272Q30 356 76.50 423.50Q123 491 204.50 529Q286 567 386 567Q530 567 609 507Q688 447 726 339L600 339Q591 375 562 407Q533 439 488 458Q443 477 389 477Q315 477 263 450Q211 423 184.50 376.50Q158 330 158 272Q158 222 183 174Q208 126 260 95.50Q312 65 389 67Q444 67 489 86.50Q534 106 562.50 137.50Q591 169 599 204L725 204Q718 148 668.50 95.50Q619 43 543.50 10Q468-23 386-23Q291-23 209 15.50Q127 54 78.50 122Q30 190 30 272M379 599Q346 599 323 621.50Q300 644 300 677Q300 709 323 732Q346 755 379 755Q411 755 433.50 732Q456 709 456 677Q456 644 433.50 621.50Q411 599 379 599Z"  horiz-adv-x="756" vert-adv-y="1000"  />

      
      <glyph glyph-name="uni010C" unicode="&#x010C;" d="M40 369Q40 480 99.50 569Q159 658 262 708.50Q365 759 491 759Q642 759 756.50 684Q871 609 922 471L786 469Q765 525 715 565Q665 605 604.50 625.50Q544 646 492 646Q414 646 339.50 613.50Q265 581 217.50 518Q170 455 170 369Q170 281 214 219Q258 157 331.50 125Q405 93 492 93Q543 93 599 112.50Q655 132 704 171Q753 210 782 266L923 266Q867 126 754.50 53Q642-20 491-20Q366-20 262.50 31Q159 82 99.50 171Q40 260 40 369M479 847L588 929L737 929L557 793L398 793L228 929L377 929L479 847Z"  horiz-adv-x="963" vert-adv-y="1000"  />

      
      <glyph glyph-name="uni010D" unicode="&#x010D;" d="M30 272Q30 356 76.50 423.50Q123 491 204.50 529Q286 567 386 567Q530 567 609 507Q688 447 726 339L600 339Q591 375 562 407Q533 439 488 458Q443 477 389 477Q315 477 263 450Q211 423 184.50 376.50Q158 330 158 272Q158 222 183 174Q208 126 260 95.50Q312 65 389 67Q444 67 489 86.50Q534 106 562.50 137.50Q591 169 599 204L725 204Q718 148 668.50 95.50Q619 43 543.50 10Q468-23 386-23Q291-23 209 15.50Q127 54 78.50 122Q30 190 30 272M370 653L479 735L628 735L448 599L289 599L119 735L268 735L370 653Z"  horiz-adv-x="756" vert-adv-y="1000"  />

      
      <glyph glyph-name="uni010E" unicode="&#x010E;" d="M820 369Q820 264 770 180Q720 96 628 48Q536 0 414 0L60 0L60 740L413 740Q535 740 627.50 692Q720 644 770 560Q820 476 820 369M432 122Q507 122 565.50 150.50Q624 179 657.50 234.50Q691 290 691 369Q691 435 657.50 492Q624 549 564.50 583Q505 617 432 617L190 617L190 122L432 122M353 828L462 910L611 910L431 774L272 774L102 910L251 910L353 828Z"  horiz-adv-x="860" vert-adv-y="1000"  />

      
      <glyph glyph-name="uni010F" unicode="&#x010F;" d="M745 738L869 738L869 614Q867 578 852 557.50Q837 537 811 537L744 537L744 570L763 570Q782 570 785 572.50Q788 575 788 589L788 614L745 614L745 738M559 738L684 738L684 3L580 3L567 66Q482-9 295-9Q218-9 157.50 29.50Q97 68 63.50 135Q30 202 30 285L30 286L30 288Q31 360 62.50 424Q94 488 154 527Q214 566 295 566Q468 566 559 480L559 738M365 78Q422 78 466 106.50Q510 135 534.50 180.50Q559 226 559 276Q559 331 535 377Q511 423 466.50 450.50Q422 478 365 478Q300 478 254 448Q208 418 185 373.50Q162 329 161 286Q162 236 185 188.50Q208 141 253.50 109.50Q299 78 365 78Z"  horiz-adv-x="859" vert-adv-y="1000"  />

      
      <glyph glyph-name="uni0110" unicode="&#x0110;" d="M834 369Q834 264 784 180Q734 96 642 48Q550 0 428 0L74 0L74 312L-5 312L-5 432L74 432L74 740L427 740Q549 740 641.50 692Q734 644 784 560Q834 476 834 369M446 122Q521 122 579.50 150.50Q638 179 671.50 234.50Q705 290 705 369Q705 435 671.50 492Q638 549 578.50 583Q519 617 446 617L204 617L204 432L468 432L468 312L204 312L204 122L446 122Z"  horiz-adv-x="874" vert-adv-y="1000"  />

      
      <glyph glyph-name="uni0111" unicode="&#x0111;" d="M770 678L770 593L684 593L684 3L580 3L567 66Q482-9 295-9Q218-9 157.50 29.50Q97 68 63.50 135Q30 202 30 285L30 286L30 288Q31 360 62.50 424Q94 488 154 527Q214 566 295 566Q468 566 559 480L559 593L369 593L369 678L559 678L559 738L684 738L684 678L770 678M365 78Q422 78 466 106.50Q510 135 534.50 180.50Q559 226 559 276Q559 331 535 377Q511 423 466.50 450.50Q422 478 365 478Q300 478 254 448Q208 418 185 373.50Q162 329 161 286Q162 236 185 188.50Q208 141 253.50 109.50Q299 78 365 78Z"  horiz-adv-x="785" vert-adv-y="1000"  />

      
      <glyph glyph-name="uni0112" unicode="&#x0112;" d="M716 330L190 330L190 111L800 115L800 0L60 0L60 740L800 740L801 625L190 625L190 445L716 445L716 330M200 774L200 884L637 884L637 774L200 774Z"  horiz-adv-x="846" vert-adv-y="1000"  />

      
      <glyph glyph-name="uni0113" unicode="&#x0113;" d="M723 265L155 265Q158 214 184 169.50Q210 125 261 97Q312 69 385 69Q448 69 496.50 91.50Q545 114 571.50 147.50Q598 181 598 212L723 212Q723 160 683 106Q643 52 566 16Q489-20 383-20Q288-20 207 17.50Q126 55 78 122.50Q30 190 30 276Q30 364 76.50 431.50Q123 499 203.50 535.50Q284 572 383 572Q484 572 560.50 536Q637 500 679.50 434.50Q722 369 723 281L723 265M385 482Q299 482 246 444Q193 406 170 344L590 344Q573 406 523.50 444Q474 482 385 482M170 606L170 716L607 716L607 606L170 606Z"  horiz-adv-x="753" vert-adv-y="1000"  />

      
      <glyph glyph-name="uni0116" unicode="&#x0116;" d="M716 330L190 330L190 111L800 115L800 0L60 0L60 740L800 740L801 625L190 625L190 445L716 445L716 330M423 783Q390 783 367 805.50Q344 828 344 861Q344 893 367 916Q390 939 423 939Q455 939 477.50 916Q500 893 500 861Q500 828 477.50 805.50Q455 783 423 783Z"  horiz-adv-x="846" vert-adv-y="1000"  />

      
      <glyph glyph-name="uni0117" unicode="&#x0117;" d="M723 265L155 265Q158 214 184 169.50Q210 125 261 97Q312 69 385 69Q448 69 496.50 91.50Q545 114 571.50 147.50Q598 181 598 212L723 212Q723 160 683 106Q643 52 566 16Q489-20 383-20Q288-20 207 17.50Q126 55 78 122.50Q30 190 30 276Q30 364 76.50 431.50Q123 499 203.50 535.50Q284 572 383 572Q484 572 560.50 536Q637 500 679.50 434.50Q722 369 723 281L723 265M385 482Q299 482 246 444Q193 406 170 344L590 344Q573 406 523.50 444Q474 482 385 482M378 607Q345 607 322 629.50Q299 652 299 685Q299 717 322 740Q345 763 378 763Q410 763 432.50 740Q455 717 455 685Q455 652 432.50 629.50Q410 607 378 607Z"  horiz-adv-x="753" vert-adv-y="1000"  />

      
      <glyph glyph-name="uni0118" unicode="&#x0118;" d="M190 330L190 111L800 115L800 0L773 0Q734-4 721.50-21.50Q709-39 709-68Q709-101 725.50-119Q742-137 795-137L795-180Q727-182 687.50-171.50Q648-161 630.50-136.50Q613-112 613-68Q613-24 630 0L60 0L60 740L800 740L801 625L190 625L190 445L716 445L716 330L190 330Z"  horiz-adv-x="846" vert-adv-y="1000"  />

      
      <glyph glyph-name="uni0119" unicode="&#x0119;" d="M723 265L155 265Q158 214 184 169.50Q210 125 261 97Q312 69 385 69Q448 69 496.50 91.50Q545 114 571.50 147.50Q598 181 598 212L723 212Q723 161 684 107.50Q645 54 569.50 17.50Q494-19 390-20Q379-35 379-65Q379-98 395.50-116Q412-134 465-134L465-177Q397-179 357.50-168.50Q318-158 300.50-133.50Q283-109 283-65Q283-32 292-11Q218 5 158.50 44.50Q99 84 64.50 144Q30 204 30 276Q30 364 76.50 431.50Q123 499 203.50 535.50Q284 572 383 572Q484 572 560.50 536Q637 500 679.50 434.50Q722 369 723 281L723 265M385 482Q299 482 246 444Q193 406 170 344L590 344Q573 406 523.50 444Q474 482 385 482Z"  horiz-adv-x="753" vert-adv-y="1000"  />

      
      <glyph glyph-name="uni011A" unicode="&#x011A;" d="M716 330L190 330L190 111L800 115L800 0L60 0L60 740L800 740L801 625L190 625L190 445L716 445L716 330M417 828L526 910L675 910L495 774L336 774L166 910L315 910L417 828Z"  horiz-adv-x="846" vert-adv-y="1000"  />

      
      <glyph glyph-name="uni011B" unicode="&#x011B;" d="M723 265L155 265Q158 214 184 169.50Q210 125 261 97Q312 69 385 69Q448 69 496.50 91.50Q545 114 571.50 147.50Q598 181 598 212L723 212Q723 160 683 106Q643 52 566 16Q489-20 383-20Q288-20 207 17.50Q126 55 78 122.50Q30 190 30 276Q30 364 76.50 431.50Q123 499 203.50 535.50Q284 572 383 572Q484 572 560.50 536Q637 500 679.50 434.50Q722 369 723 281L723 265M385 482Q299 482 246 444Q193 406 170 344L590 344Q573 406 523.50 444Q474 482 385 482M385 658L494 740L643 740L463 604L304 604L134 740L283 740L385 658Z"  horiz-adv-x="753" vert-adv-y="1000"  />

      
      <glyph glyph-name="uni011E" unicode="&#x011E;" d="M927 0L845 0L825 108Q764 47 676 13.50Q588-20 488-20Q361-20 259 31Q157 82 98.50 170.50Q40 259 40 369Q40 480 100 568.50Q160 657 262.50 707Q365 757 488 757Q576 757 663 727Q750 697 818 635Q886 573 914 481L776 480Q752 535 704 571.50Q656 608 598.50 625.50Q541 643 489 643Q398 643 325.50 609.50Q253 576 211.50 513.50Q170 451 170 369Q170 282 213.50 219.50Q257 157 330 125Q403 93 489 93Q579 93 659 134Q739 175 780 259L500 259L500 361L923 361L923 289L927 0M733 991Q733 892 664.50 842Q596 792 487 792Q376 792 307 842Q238 892 238 991L349 991Q349 935 388 899Q427 863 486 863Q543 863 582.50 899Q622 935 622 991L733 991Z"  horiz-adv-x="967" vert-adv-y="1000"  />

      
      <glyph glyph-name="uni011F" unicode="&#x011F;" d="M687 545L687 0Q683-116 596.50-164.50Q510-213 394-213Q288-213 223.50-205.50Q159-198 109-160Q59-122 59-39L189-39Q190-111 345-111L394-110Q451-110 505.50-86.50Q560-63 560 10L560 62Q475-18 300-18Q223-18 162.50 21.50Q102 61 67 125Q32 189 30 260L30 264L30 267Q31 349 65.50 415Q100 481 161 519Q222 557 300 557Q474 562 560 485L560 490L579 545L687 545M367 70Q456 70 508 123Q560 176 560 279L560 282Q560 328 537.50 371.50Q515 415 473.50 442.50Q432 470 379 470Q314 470 266 442.50Q218 415 193 368.50Q168 322 167 268Q169 180 221.50 125Q274 70 367 70M612 791Q612 692 543.50 642Q475 592 366 592Q255 592 186 642Q117 692 117 791L228 791Q228 735 267 699Q306 663 365 663Q422 663 461.50 699Q501 735 501 791L612 791Z"  horiz-adv-x="735" vert-adv-y="1000"  />

      
      <glyph glyph-name="uni0120" unicode="&#x0120;" d="M927 0L845 0L825 108Q764 47 676 13.50Q588-20 488-20Q361-20 259 31Q157 82 98.50 170.50Q40 259 40 369Q40 480 100 568.50Q160 657 262.50 707Q365 757 488 757Q576 757 663 727Q750 697 818 635Q886 573 914 481L776 480Q752 535 704 571.50Q656 608 598.50 625.50Q541 643 489 643Q398 643 325.50 609.50Q253 576 211.50 513.50Q170 451 170 369Q170 282 213.50 219.50Q257 157 330 125Q403 93 489 93Q579 93 659 134Q739 175 780 259L500 259L500 361L923 361L923 289L927 0M489 783Q456 783 433 805.50Q410 828 410 861Q410 893 433 916Q456 939 489 939Q521 939 543.50 916Q566 893 566 861Q566 828 543.50 805.50Q521 783 489 783Z"  horiz-adv-x="967" vert-adv-y="1000"  />

      
      <glyph glyph-name="uni0121" unicode="&#x0121;" d="M687 545L687 0Q683-116 596.50-164.50Q510-213 394-213Q288-213 223.50-205.50Q159-198 109-160Q59-122 59-39L189-39Q190-111 345-111L394-110Q451-110 505.50-86.50Q560-63 560 10L560 62Q475-18 300-18Q223-18 162.50 21.50Q102 61 67 125Q32 189 30 260L30 264L30 267Q31 349 65.50 415Q100 481 161 519Q222 557 300 557Q474 562 560 485L560 490L579 545L687 545M367 70Q456 70 508 123Q560 176 560 279L560 282Q560 328 537.50 371.50Q515 415 473.50 442.50Q432 470 379 470Q314 470 266 442.50Q218 415 193 368.50Q168 322 167 268Q169 180 221.50 125Q274 70 367 70M364 591Q331 591 308 613.50Q285 636 285 669Q285 701 308 724Q331 747 364 747Q396 747 418.50 724Q441 701 441 669Q441 636 418.50 613.50Q396 591 364 591Z"  horiz-adv-x="735" vert-adv-y="1000"  />

      
      <glyph glyph-name="uni0122" unicode="&#x0122;" d="M927 0L845 0L825 108Q764 47 676 13.50Q588-20 488-20Q361-20 259 31Q157 82 98.50 170.50Q40 259 40 369Q40 480 100 568.50Q160 657 262.50 707Q365 757 488 757Q576 757 663 727Q750 697 818 635Q886 573 914 481L776 480Q752 535 704 571.50Q656 608 598.50 625.50Q541 643 489 643Q398 643 325.50 609.50Q253 576 211.50 513.50Q170 451 170 369Q170 282 213.50 219.50Q257 157 330 125Q403 93 489 93Q579 93 659 134Q739 175 780 259L500 259L500 361L923 361L923 289L927 0M434-50L558-50L558-174Q556-210 541-230.50Q526-251 500-251L433-251L433-218L452-218Q471-218 474-215.50Q477-213 477-199L477-174L434-174L434-50Z"  horiz-adv-x="967" vert-adv-y="1000"  />

      
      <glyph glyph-name="uni0123" unicode="&#x0123;" d="M687 545L687 0Q683-116 596.50-164.50Q510-213 394-213Q288-213 223.50-205.50Q159-198 109-160Q59-122 59-39L189-39Q190-111 345-111L394-110Q451-110 505.50-86.50Q560-63 560 10L560 62Q475-18 300-18Q223-18 162.50 21.50Q102 61 67 125Q32 189 30 260L30 264L30 267Q31 349 65.50 415Q100 481 161 519Q222 557 300 557Q474 562 560 485L560 490L579 545L687 545M367 70Q456 70 508 123Q560 176 560 279L560 282Q560 328 537.50 371.50Q515 415 473.50 442.50Q432 470 379 470Q314 470 266 442.50Q218 415 193 368.50Q168 322 167 268Q169 180 221.50 125Q274 70 367 70M383 709L426 709L426 585L302 585L302 709Q304 745 319 765.50Q334 786 360 786L427 786L427 753L408 753Q389 753 386 750.50Q383 748 383 734L383 709Z"  horiz-adv-x="735" vert-adv-y="1000"  />

      
      <glyph glyph-name="uni0126" unicode="&#x0126;" d="M960 632L1046 632L1046 531L960 531L960 0L830 0L830 339L300 339L300 0L170 0L170 531L85 531L85 632L170 632L170 740L300 740L300 632L830 632L830 740L960 740L960 632M300 459L830 459L830 531L300 531L300 459Z"  horiz-adv-x="1081" vert-adv-y="1000"  />

      
      <glyph glyph-name="uni0127" unicode="&#x0127;" d="M439 563Q497 563 552 531Q607 499 644 423Q681 347 681 225L681 0L556 0L556 222Q556 325 522 394.50Q488 464 381 464Q271 464 235.50 393.50Q200 323 200 215L200 0L75 0L75 593L0 593L0 678L75 678L75 740L200 740L200 678L401 678L401 593L200 593L200 474Q279 563 439 563Z"  horiz-adv-x="721" vert-adv-y="1000"  />

      
      <glyph glyph-name="uni012A" unicode="&#x012A;" d="M190 0L60 0L60 740L190 740L190 0M-94 774L-94 884L343 884L343 774L-94 774Z"  horiz-adv-x="250" vert-adv-y="1000"  />

      
      <glyph glyph-name="uni012B" unicode="&#x012B;" d="M40 638L40 748L477 748L477 638L40 638M321 0L196 0L196 605L321 605L321 0Z"  horiz-adv-x="517" vert-adv-y="1000"  />

      
      <glyph glyph-name="uni012E" unicode="&#x012E;" d="M60 740L190 740L190 0L185 0Q132 0 115.50-18Q99-36 99-69Q99-102 115.50-120Q132-138 185-138L185-181Q117-183 77.50-172.50Q38-162 20.50-137.50Q3-113 3-69Q3-30 16.50-7Q30 16 60 29L60 740Z"  horiz-adv-x="250" vert-adv-y="1000"  />

      
      <glyph glyph-name="uni012F" unicode="&#x012F;" d="M45 634L45 740L170 740L170 634L45 634M45 605L170 605L170 0L143 0Q90 0 73.50-18Q57-36 57-69Q57-102 73.50-120Q90-138 143-138L143-181Q75-183 35.50-172.50Q-4-162-21.50-137.50Q-39-113-39-69Q-39-23-19.50 2Q0 27 45 37L45 605Z"  horiz-adv-x="215" vert-adv-y="1000"  />

      
      <glyph glyph-name="uni0130" unicode="&#x0130;" d="M190 0L60 0L60 740L190 740L190 0M122 783Q89 783 66 805.50Q43 828 43 861Q43 893 66 916Q89 939 122 939Q154 939 176.50 916Q199 893 199 861Q199 828 176.50 805.50Q154 783 122 783Z"  horiz-adv-x="250" vert-adv-y="1000"  />

      
      <glyph glyph-name="uni0131" unicode="&#x0131;" d="M170 0L45 0L45 605L170 605L170 0Z"  horiz-adv-x="215" vert-adv-y="1000"  />

      
      <glyph glyph-name="uni0136" unicode="&#x0136;" d="M303 401L797 0L598 0L190 343L190 0L60 0L60 740L190 740L190 454L579 740L781 740L303 401M344-32L468-32L468-156Q466-192 451-212.50Q436-233 410-233L343-233L343-200L362-200Q381-200 384-197.50Q387-195 387-181L387-156L344-156L344-32Z"  horiz-adv-x="797" vert-adv-y="1000"  />

      
      <glyph glyph-name="uni0137" unicode="&#x0137;" d="M303 301L667 0L495 0L160 271L160 0L35 0L35 740L160 740L160 330L448 545L625 545L303 301M276-35L400-35L400-159Q398-195 383-215.50Q368-236 342-236L275-236L275-203L294-203Q313-203 316-200.50Q319-198 319-184L319-159L276-159L276-35Z"  horiz-adv-x="672" vert-adv-y="1000"  />

      
      <glyph glyph-name="uni0139" unicode="&#x0139;" d="M190 740L190 113L720 113L720 0L60 0L60 740L190 740M70 774L140 907L304 907L184 774L70 774Z"  horiz-adv-x="765" vert-adv-y="1000"  />

      
      <glyph glyph-name="uni013A" unicode="&#x013A;" d="M170 0L45 0L45 740L170 740L170 0M47 777L117 910L281 910L161 777L47 777Z"  horiz-adv-x="230" vert-adv-y="1000"  />

      
      <glyph glyph-name="uni013B" unicode="&#x013B;" d="M190 740L190 113L720 113L720 0L60 0L60 740L190 740M314-34L438-34L438-158Q436-194 421-214.50Q406-235 380-235L313-235L313-202L332-202Q351-202 354-199.50Q357-197 357-183L357-158L314-158L314-34Z"  horiz-adv-x="765" vert-adv-y="1000"  />

      
      <glyph glyph-name="uni013C" unicode="&#x013C;" d="M170 0L45 0L45 740L170 740L170 0M47-35L171-35L171-159Q169-195 154-215.50Q139-236 113-236L46-236L46-203L65-203Q84-203 87-200.50Q90-198 90-184L90-159L47-159L47-35Z"  horiz-adv-x="230" vert-adv-y="1000"  />

      
      <glyph glyph-name="uni013D" unicode="&#x013D;" d="M190 740L190 113L720 113L720 0L60 0L60 740L190 740M126 828L235 910L384 910L204 774L45 774L-125 910L24 910L126 828Z"  horiz-adv-x="765" vert-adv-y="1000"  />

      
      <glyph glyph-name="uni013E" unicode="&#x013E;" d="M170 0L45 0L45 740L170 740L170 0M107 827L216 909L365 909L185 773L26 773L-144 909L5 909L107 827Z"  horiz-adv-x="230" vert-adv-y="1000"  />

      
      <glyph glyph-name="uni0141" unicode="&#x0141;" d="M270 356L270 113L800 113L800 0L140 0L140 295L15 237L15 343L140 401L140 740L270 740L270 462L421 533L421 427L270 356Z"  horiz-adv-x="790" vert-adv-y="1000"  />

      
      <glyph glyph-name="uni0142" unicode="&#x0142;" d="M203 526L280 562L280 456L203 420L203 0L78 0L78 361L0 325L0 431L78 467L78 740L203 740L203 526Z"  horiz-adv-x="280" vert-adv-y="1000"  />

      
      <glyph glyph-name="uni0143" unicode="&#x0143;" d="M190 0L60 0L60 740L190 0M900 0L770 0L900 0M770 179L770 740L900 740L900 0L770 0L190 562L190 0L60 0L60 740L190 740L770 179M403 777L473 910L637 910L517 777L403 777Z"  horiz-adv-x="960" vert-adv-y="1000"  />

      
      <glyph glyph-name="uni0144" unicode="&#x0144;" d="M416 563Q526 563 588.50 486Q651 409 651 225L651 0L526 0L526 222Q526 325 492 394.50Q458 464 351 464Q241 464 205.50 393.50Q170 323 170 215L170 0L45 0L45 545L170 545L170 470Q252 563 416 563M296 595L366 728L530 728L410 595L296 595Z"  horiz-adv-x="691" vert-adv-y="1000"  />

      
      <glyph glyph-name="uni0145" unicode="&#x0145;" d="M190 0L60 0L60 740L190 0M900 0L770 0L900 0M770 179L770 740L900 740L900 0L770 0L190 562L190 0L60 0L60 740L190 740L770 179M413-34L537-34L537-158Q535-194 520-214.50Q505-235 479-235L412-235L412-202L431-202Q450-202 453-199.50Q456-197 456-183L456-158L413-158L413-34Z"  horiz-adv-x="960" vert-adv-y="1000"  />

      
      <glyph glyph-name="uni0146" unicode="&#x0146;" d="M416 563Q526 563 588.50 486Q651 409 651 225L651 0L526 0L526 222Q526 325 492 394.50Q458 464 351 464Q241 464 205.50 393.50Q170 323 170 215L170 0L45 0L45 545L170 545L170 470Q252 563 416 563M292-35L416-35L416-159Q414-195 399-215.50Q384-236 358-236L291-236L291-203L310-203Q329-203 332-200.50Q335-198 335-184L335-159L292-159L292-35Z"  horiz-adv-x="691" vert-adv-y="1000"  />

      
      <glyph glyph-name="uni0147" unicode="&#x0147;" d="M190 0L60 0L60 740L190 0M900 0L770 0L900 0M770 179L770 740L900 740L900 0L770 0L190 562L190 0L60 0L60 740L190 740L770 179M482 828L591 910L740 910L560 774L401 774L231 910L380 910L482 828Z"  horiz-adv-x="960" vert-adv-y="1000"  />

      
      <glyph glyph-name="uni0148" unicode="&#x0148;" d="M416 563Q526 563 588.50 486Q651 409 651 225L651 0L526 0L526 222Q526 325 492 394.50Q458 464 351 464Q241 464 205.50 393.50Q170 323 170 215L170 0L45 0L45 545L170 545L170 470Q252 563 416 563M343 648L452 730L601 730L421 594L262 594L92 730L241 730L343 648Z"  horiz-adv-x="691" vert-adv-y="1000"  />

      
      <glyph glyph-name="uni014A" unicode="&#x014A;" d="M190 0L60 0L60 740L190 0M900 0L770 0L900 0M900 111L901 111L901-5Q901-88 880-137Q859-186 793.50-213Q728-240 598-240L598-127Q689-127 730.50-98.50Q772-70 771 0L770 0L190 562L190 0L60 0L60 740L190 740L770 179L770 740L900 740L900 111Z"  horiz-adv-x="961" vert-adv-y="1000"  />

      
      </font>
</defs>
</svg>
